<svg xmlns="http://www.w3.org/2000/svg" version="1.1" xmlns:xlink="http://www.w3.org/1999/xlink" xmlns:svgjs="http://svgjs.com/svgjs" width="1440" height="560" preserveAspectRatio="none" viewBox="0 0 1440 560"><g mask="url(&quot;#SvgjsMask1033&quot;)" fill="none"><rect width="1440" height="560" x="0" y="0" fill="rgba(29, 154, 232, 1)"></rect><path d="M0,593.007C105.423,562.394,169.023,463.141,250.028,389.051C316.435,328.312,388.79,276.19,432.434,197.486C478.652,114.139,495.788,21.973,506.119,-72.769C519.458,-195.095,585.685,-344.818,501.34,-434.414C415.98,-525.087,258.61,-440.266,136.616,-465.273C29.137,-487.304,-62.751,-603.126,-167.832,-571.582C-272.981,-540.017,-309.474,-410.589,-363.644,-315.099C-408.275,-236.424,-421.734,-149.54,-454.972,-65.415C-500.673,50.255,-613.156,148.878,-595.608,272.005C-577.605,398.326,-477.082,507.039,-364.759,567.575C-255.25,626.595,-119.466,627.698,0,593.007" fill="#10659a"></path><path d="M1440 993.185C1521.877 1012.358 1607.3609999999999 975.855 1679.738 933.04 1753.863 889.191 1827.038 830.762 1853.25 748.725 1878.684 669.122 1842.385 585.271 1816.211 505.909 1793.872 438.176 1753.6979999999999 382.01599999999996 1712.993 323.45 1667.185 257.542 1635.65 175.349 1562.899 141.44600000000003 1486.833 105.99799999999999 1396.576 114.25299999999999 1316.255 138.56400000000002 1236.329 162.75599999999997 1163.714 210.402 1113.826 277.369 1065.828 341.799 1044.673 422.81399999999996 1044.6480000000001 503.157 1044.625 577.031 1073.123 647.281 1113.689 709.021 1150.238 764.646 1212.787 791.738 1262.98 835.448 1323.814 888.425 1361.4569999999999 974.793 1440 993.185" fill="#70bff0"></path></g><defs><mask id="SvgjsMask1033"><rect width="1440" height="560" fill="#ffffff"></rect></mask></defs></svg>