<svg xmlns="http://www.w3.org/2000/svg" version="1.1" xmlns:xlink="http://www.w3.org/1999/xlink" xmlns:svgjs="http://svgjs.com/svgjs" width="1440" height="560" preserveAspectRatio="none" viewBox="0 0 1440 560"><g mask="url(&quot;#SvgjsMask1073&quot;)" fill="none"><rect width="1440" height="560" x="0" y="0" fill="rgba(80, 81, 81, 1)"></rect><path d="M0,439.871C87.352,431.935,174.762,432.911,253.881,395.047C340.324,353.678,439.261,305.447,470.323,214.789C501.24,124.557,434.14,33.255,409.405,-58.864C387.969,-138.697,392.22,-230.647,334.764,-290.074C278.048,-348.736,184.558,-340.078,108.629,-369.957C22.93,-403.68,-48.064,-481.716,-140.034,-476.911C-238.244,-471.78,-331.8,-417.633,-396.498,-343.567C-461.309,-269.372,-493.691,-169.614,-494.517,-71.101C-495.29,21.055,-435.583,97.702,-400.914,183.091C-364.388,273.054,-367.128,391.671,-285.366,444.039C-203.6,496.409,-96.701,448.657,0,439.871" fill="#343535"></path><path d="M1440 905.018C1505.5 896.6120000000001 1570.879 885.7860000000001 1625.936 849.322 1680.525 813.168 1730.859 763.913 1748.335 700.812 1764.983 640.701 1729.033 581.381 1717.096 520.16 1705.875 462.608 1714.568 399.361 1680.285 351.79200000000003 1644.85 302.624 1585.851 278.179 1528.526 258.509 1469.084 238.113 1403.747 214.214 1345.094 236.77999999999997 1287.263 259.029 1268.357 329.326 1226.2649999999999 374.798 1182.26 422.337 1102.751 446.079 1092.192 509.993 1081.654 573.784 1155.569 619.255 1175.732 680.687 1199.622 753.476 1162.232 851.759 1220.636 901.337 1277.541 949.642 1365.964 914.52 1440 905.018" fill="#6c6d6d"></path></g><defs><mask id="SvgjsMask1073"><rect width="1440" height="560" fill="#ffffff"></rect></mask></defs></svg>