<svg id="visual" viewBox="0 0 900 600" width="900" height="600" xmlns="http://www.w3.org/2000/svg" xmlns:xlink="http://www.w3.org/1999/xlink" version="1.1"><rect x="0" y="0" width="900" height="600" fill="#f74949"></rect><path d="M0 107L129 198L257 169L386 259L514 250L643 194L771 122L900 253L900 601L771 601L643 601L514 601L386 601L257 601L129 601L0 601Z" fill="#e12d2d"></path><path d="M0 195L129 358L257 215L386 308L514 357L643 198L771 288L900 286L900 601L771 601L643 601L514 601L386 601L257 601L129 601L0 601Z" fill="#c92f28"></path><path d="M0 383L129 294L257 404L386 388L514 355L643 377L771 313L900 329L900 601L771 601L643 601L514 601L386 601L257 601L129 601L0 601Z" fill="#b12f24"></path><path d="M0 395L129 428L257 474L386 454L514 423L643 483L771 411L900 391L900 601L771 601L643 601L514 601L386 601L257 601L129 601L0 601Z" fill="#9a2e20"></path><path d="M0 451L129 497L257 544L386 539L514 510L643 543L771 451L900 539L900 601L771 601L643 601L514 601L386 601L257 601L129 601L0 601Z" fill="#842c1d"></path></svg>