<svg xmlns="http://www.w3.org/2000/svg" width="1440" height="900"><path d="M772,451L659,343L662,425Z" fill="rgb(249,203,212)" stroke="rgb(249,203,212)" stroke-width="1.51"/><path d="M772,451L788,312L659,343Z" fill="rgb(249,204,213)" stroke="rgb(249,204,213)" stroke-width="1.51"/><path d="M788,312L685,218L659,343Z" fill="rgb(249,209,217)" stroke="rgb(249,209,217)" stroke-width="1.51"/><path d="M772,451L897,337L788,312Z" fill="rgb(249,201,211)" stroke="rgb(249,201,211)" stroke-width="1.51"/><path d="M788,312L754,184L685,218Z" fill="rgb(249,211,219)" stroke="rgb(249,211,219)" stroke-width="1.51"/><path d="M772,451L897,478L897,337Z" fill="rgb(249,197,208)" stroke="rgb(249,197,208)" stroke-width="1.51"/><path d="M662,425L632,552L772,451Z" fill="rgb(249,200,210)" stroke="rgb(249,200,210)" stroke-width="1.51"/><path d="M772,451L806,589L897,478Z" fill="rgb(249,193,204)" stroke="rgb(249,193,204)" stroke-width="1.51"/><path d="M534,473L632,552L662,425Z" fill="rgb(249,202,211)" stroke="rgb(249,202,211)" stroke-width="1.51"/><path d="M922,221L754,184L788,312Z" fill="rgb(249,208,217)" stroke="rgb(249,208,217)" stroke-width="1.51"/><path d="M659,343L521,347L662,425Z" fill="rgb(249,208,216)" stroke="rgb(249,208,216)" stroke-width="1.51"/><path d="M539,204L521,347L659,343Z" fill="rgb(249,214,221)" stroke="rgb(249,214,221)" stroke-width="1.51"/><path d="M521,347L534,473L662,425Z" fill="rgb(249,207,215)" stroke="rgb(249,207,215)" stroke-width="1.51"/><path d="M632,552L806,589L772,451Z" fill="rgb(249,194,206)" stroke="rgb(249,194,206)" stroke-width="1.51"/><path d="M534,473L568,570L632,552Z" fill="rgb(249,200,210)" stroke="rgb(249,200,210)" stroke-width="1.51"/><path d="M632,552L678,690L806,589Z" fill="rgb(249,191,203)" stroke="rgb(249,191,203)" stroke-width="1.51"/><path d="M897,337L922,221L788,312Z" fill="rgb(249,204,213)" stroke="rgb(249,204,213)" stroke-width="1.51"/><path d="M1011,354L922,221L897,337Z" fill="rgb(249,200,210)" stroke="rgb(249,200,210)" stroke-width="1.51"/><path d="M685,218L539,204L659,343Z" fill="rgb(249,214,221)" stroke="rgb(249,214,221)" stroke-width="1.51"/><path d="M677,117L539,204L685,218Z" fill="rgb(249,219,225)" stroke="rgb(249,219,225)" stroke-width="1.51"/><path d="M754,184L677,117L685,218Z" fill="rgb(249,216,223)" stroke="rgb(249,216,223)" stroke-width="1.51"/><path d="M760,70L677,117L754,184Z" fill="rgb(249,218,225)" stroke="rgb(249,218,225)" stroke-width="1.51"/><path d="M1011,439L1011,354L897,337Z" fill="rgb(249,195,206)" stroke="rgb(249,195,206)" stroke-width="1.51"/><path d="M806,589L897,596L897,478Z" fill="rgb(248,189,201)" stroke="rgb(248,189,201)" stroke-width="1.51"/><path d="M1011,439L897,337L897,478Z" fill="rgb(249,194,205)" stroke="rgb(249,194,205)" stroke-width="1.51"/><path d="M992,544L1011,439L897,478Z" fill="rgb(249,189,202)" stroke="rgb(249,189,202)" stroke-width="1.51"/><path d="M521,347L392,448L534,473Z" fill="rgb(249,210,218)" stroke="rgb(249,210,218)" stroke-width="1.51"/><path d="M534,473L446,565L568,570Z" fill="rgb(249,202,212)" stroke="rgb(249,202,212)" stroke-width="1.51"/><path d="M539,204L436,309L521,347Z" fill="rgb(249,217,224)" stroke="rgb(249,217,224)" stroke-width="1.51"/><path d="M897,596L992,544L897,478Z" fill="rgb(248,187,200)" stroke="rgb(248,187,200)" stroke-width="1.51"/><path d="M893,86L760,70L754,184Z" fill="rgb(249,216,223)" stroke="rgb(249,216,223)" stroke-width="1.51"/><path d="M568,570L678,690L632,552Z" fill="rgb(249,194,206)" stroke="rgb(249,194,206)" stroke-width="1.51"/><path d="M806,589L887,713L897,596Z" fill="rgb(248,184,198)" stroke="rgb(248,184,198)" stroke-width="1.51"/><path d="M677,117L550,118L539,204Z" fill="rgb(249,222,228)" stroke="rgb(249,222,228)" stroke-width="1.51"/><path d="M539,204L435,197L436,309Z" fill="rgb(249,221,226)" stroke="rgb(249,221,226)" stroke-width="1.51"/><path d="M640,-24L550,118L677,117Z" fill="rgb(249,225,230)" stroke="rgb(249,225,230)" stroke-width="1.51"/><path d="M922,221L893,86L754,184Z" fill="rgb(249,211,219)" stroke="rgb(249,211,219)" stroke-width="1.51"/><path d="M1029,119L893,86L922,221Z" fill="rgb(249,209,218)" stroke="rgb(249,209,218)" stroke-width="1.51"/><path d="M568,570L512,716L678,690Z" fill="rgb(248,193,205)" stroke="rgb(248,193,205)" stroke-width="1.51"/><path d="M392,448L446,565L534,473Z" fill="rgb(249,206,215)" stroke="rgb(249,206,215)" stroke-width="1.51"/><path d="M678,690L793,716L806,589Z" fill="rgb(248,186,199)" stroke="rgb(248,186,199)" stroke-width="1.51"/><path d="M897,596L1020,689L992,544Z" fill="rgb(248,182,196)" stroke="rgb(248,182,196)" stroke-width="1.51"/><path d="M1011,354L1030,217L922,221Z" fill="rgb(249,201,211)" stroke="rgb(249,201,211)" stroke-width="1.51"/><path d="M1116,238L1030,217L1011,354Z" fill="rgb(249,198,209)" stroke="rgb(249,198,209)" stroke-width="1.51"/><path d="M436,309L392,448L521,347Z" fill="rgb(249,214,221)" stroke="rgb(249,214,221)" stroke-width="1.51"/><path d="M550,118L435,197L539,204Z" fill="rgb(249,223,228)" stroke="rgb(249,223,228)" stroke-width="1.51"/><path d="M286,316L306,442L392,448Z" fill="rgb(249,217,223)" stroke="rgb(249,217,223)" stroke-width="1.51"/><path d="M793,716L887,713L806,589Z" fill="rgb(248,183,197)" stroke="rgb(248,183,197)" stroke-width="1.51"/><path d="M1030,217L1029,119L922,221Z" fill="rgb(249,205,214)" stroke="rgb(249,205,214)" stroke-width="1.51"/><path d="M678,690L688,791L793,716Z" fill="rgb(248,184,197)" stroke="rgb(248,184,197)" stroke-width="1.51"/><path d="M446,565L512,716L568,570Z" fill="rgb(249,198,208)" stroke="rgb(249,198,208)" stroke-width="1.51"/><path d="M404,675L512,716L446,565Z" fill="rgb(249,198,208)" stroke="rgb(249,198,208)" stroke-width="1.51"/><path d="M1165,332L1116,238L1011,354Z" fill="rgb(249,194,206)" stroke="rgb(249,194,206)" stroke-width="1.51"/><path d="M1030,217L1116,238L1029,119Z" fill="rgb(249,202,212)" stroke="rgb(249,202,212)" stroke-width="1.51"/><path d="M1165,332L1011,354L1011,439Z" fill="rgb(248,192,204)" stroke="rgb(248,192,204)" stroke-width="1.51"/><path d="M566,830L688,791L678,690Z" fill="rgb(248,184,198)" stroke="rgb(248,184,198)" stroke-width="1.51"/><path d="M793,716L771,815L887,713Z" fill="rgb(248,179,194)" stroke="rgb(248,179,194)" stroke-width="1.51"/><path d="M550,118L432,69L435,197Z" fill="rgb(249,227,231)" stroke="rgb(249,227,231)" stroke-width="1.51"/><path d="M760,70L640,-24L677,117Z" fill="rgb(249,224,229)" stroke="rgb(249,224,229)" stroke-width="1.51"/><path d="M751,-48L640,-24L760,70Z" fill="rgb(249,226,230)" stroke="rgb(249,226,230)" stroke-width="1.51"/><path d="M751,-48L760,70L909,-49Z" fill="rgb(249,222,228)" stroke="rgb(249,222,228)" stroke-width="1.51"/><path d="M992,544L1123,558L1011,439Z" fill="rgb(248,184,198)" stroke="rgb(248,184,198)" stroke-width="1.51"/><path d="M887,713L1020,689L897,596Z" fill="rgb(248,180,194)" stroke="rgb(248,180,194)" stroke-width="1.51"/><path d="M990,804L1020,689L887,713Z" fill="rgb(247,175,191)" stroke="rgb(247,175,191)" stroke-width="1.51"/><path d="M392,448L308,593L446,565Z" fill="rgb(249,207,216)" stroke="rgb(249,207,216)" stroke-width="1.51"/><path d="M286,316L392,448L436,309Z" fill="rgb(249,218,224)" stroke="rgb(249,218,224)" stroke-width="1.51"/><path d="M909,-49L760,70L893,86Z" fill="rgb(249,219,225)" stroke="rgb(249,219,225)" stroke-width="1.51"/><path d="M1020,689L1123,558L992,544Z" fill="rgb(248,180,194)" stroke="rgb(248,180,194)" stroke-width="1.51"/><path d="M280,230L286,316L436,309Z" fill="rgb(249,223,228)" stroke="rgb(249,223,228)" stroke-width="1.51"/><path d="M544,-53L432,69L550,118Z" fill="rgb(249,231,234)" stroke="rgb(249,231,234)" stroke-width="1.51"/><path d="M688,791L771,815L793,716Z" fill="rgb(248,180,195)" stroke="rgb(248,180,195)" stroke-width="1.51"/><path d="M1161,472L1165,332L1011,439Z" fill="rgb(248,188,201)" stroke="rgb(248,188,201)" stroke-width="1.51"/><path d="M308,593L404,675L446,565Z" fill="rgb(249,203,212)" stroke="rgb(249,203,212)" stroke-width="1.51"/><path d="M512,716L566,830L678,690Z" fill="rgb(248,187,201)" stroke="rgb(248,187,201)" stroke-width="1.51"/><path d="M1123,558L1161,472L1011,439Z" fill="rgb(248,184,198)" stroke="rgb(248,184,198)" stroke-width="1.51"/><path d="M280,230L436,309L435,197Z" fill="rgb(249,224,229)" stroke="rgb(249,224,229)" stroke-width="1.51"/><path d="M1044,-35L909,-49L893,86Z" fill="rgb(249,217,224)" stroke="rgb(249,217,224)" stroke-width="1.51"/><path d="M1044,-35L893,86L1029,119Z" fill="rgb(249,213,220)" stroke="rgb(249,213,220)" stroke-width="1.51"/><path d="M195,590L308,593L306,442Z" fill="rgb(249,211,219)" stroke="rgb(249,211,219)" stroke-width="1.51"/><path d="M306,442L308,593L392,448Z" fill="rgb(249,211,219)" stroke="rgb(249,211,219)" stroke-width="1.51"/><path d="M640,-24L544,-53L550,118Z" fill="rgb(249,230,234)" stroke="rgb(249,230,234)" stroke-width="1.51"/><path d="M641,-164L544,-53L640,-24Z" fill="rgb(249,230,233)" stroke="rgb(249,230,233)" stroke-width="1.51"/><path d="M641,-164L640,-24L751,-48Z" fill="rgb(249,227,232)" stroke="rgb(249,227,232)" stroke-width="1.51"/><path d="M292,98L435,197L432,69Z" fill="rgb(249,231,234)" stroke="rgb(249,231,234)" stroke-width="1.51"/><path d="M292,98L280,230L435,197Z" fill="rgb(249,229,233)" stroke="rgb(249,229,233)" stroke-width="1.51"/><path d="M446,789L512,716L404,675Z" fill="rgb(249,194,205)" stroke="rgb(249,194,205)" stroke-width="1.51"/><path d="M446,789L566,830L512,716Z" fill="rgb(248,189,201)" stroke="rgb(248,189,201)" stroke-width="1.51"/><path d="M688,791L687,926L771,815Z" fill="rgb(248,177,193)" stroke="rgb(248,177,193)" stroke-width="1.51"/><path d="M887,905L929,831L771,815Z" fill="rgb(247,171,188)" stroke="rgb(247,171,188)" stroke-width="1.51"/><path d="M771,815L929,831L887,713Z" fill="rgb(247,175,191)" stroke="rgb(247,175,191)" stroke-width="1.51"/><path d="M1020,689L1151,707L1123,558Z" fill="rgb(247,174,190)" stroke="rgb(247,174,190)" stroke-width="1.51"/><path d="M929,831L990,804L887,713Z" fill="rgb(247,173,189)" stroke="rgb(247,173,189)" stroke-width="1.51"/><path d="M323,711L446,789L404,675Z" fill="rgb(249,196,207)" stroke="rgb(249,196,207)" stroke-width="1.51"/><path d="M909,-49L776,-125L751,-48Z" fill="rgb(249,222,228)" stroke="rgb(249,222,228)" stroke-width="1.51"/><path d="M1116,238L1160,106L1029,119Z" fill="rgb(249,203,213)" stroke="rgb(249,203,213)" stroke-width="1.51"/><path d="M1246,217L1160,106L1116,238Z" fill="rgb(249,199,209)" stroke="rgb(249,199,209)" stroke-width="1.51"/><path d="M1161,472L1237,462L1165,332Z" fill="rgb(248,185,199)" stroke="rgb(248,185,199)" stroke-width="1.51"/><path d="M1165,332L1246,217L1116,238Z" fill="rgb(248,194,206)" stroke="rgb(248,194,206)" stroke-width="1.51"/><path d="M1279,571L1237,462L1161,472Z" fill="rgb(248,179,194)" stroke="rgb(248,179,194)" stroke-width="1.51"/><path d="M1279,571L1161,472L1123,558Z" fill="rgb(247,178,194)" stroke="rgb(247,178,194)" stroke-width="1.51"/><path d="M1120,-38L1044,-35L1029,119Z" fill="rgb(249,212,220)" stroke="rgb(249,212,220)" stroke-width="1.51"/><path d="M909,-49L919,-139L776,-125Z" fill="rgb(249,220,226)" stroke="rgb(249,220,226)" stroke-width="1.51"/><path d="M402,-28L292,98L432,69Z" fill="rgb(249,235,238)" stroke="rgb(249,235,238)" stroke-width="1.51"/><path d="M308,593L323,711L404,675Z" fill="rgb(249,201,211)" stroke="rgb(249,201,211)" stroke-width="1.51"/><path d="M414,-145L402,-28L544,-53Z" fill="rgb(248,235,238)" stroke="rgb(248,235,238)" stroke-width="1.51"/><path d="M544,-53L402,-28L432,69Z" fill="rgb(248,235,238)" stroke="rgb(248,235,238)" stroke-width="1.51"/><path d="M1125,834L1151,707L1020,689Z" fill="rgb(247,169,186)" stroke="rgb(247,169,186)" stroke-width="1.51"/><path d="M280,230L209,237L286,316Z" fill="rgb(249,227,231)" stroke="rgb(249,227,231)" stroke-width="1.51"/><path d="M286,316L184,428L306,442Z" fill="rgb(249,220,225)" stroke="rgb(249,220,225)" stroke-width="1.51"/><path d="M308,593L187,713L323,711Z" fill="rgb(249,203,213)" stroke="rgb(249,203,213)" stroke-width="1.51"/><path d="M197,90L209,237L280,230Z" fill="rgb(249,233,236)" stroke="rgb(249,233,236)" stroke-width="1.51"/><path d="M1289,309L1246,217L1165,332Z" fill="rgb(248,190,203)" stroke="rgb(248,190,203)" stroke-width="1.51"/><path d="M526,955L687,926L566,830Z" fill="rgb(248,178,194)" stroke="rgb(248,178,194)" stroke-width="1.51"/><path d="M566,830L687,926L688,791Z" fill="rgb(248,179,194)" stroke="rgb(248,179,194)" stroke-width="1.51"/><path d="M990,804L1125,834L1020,689Z" fill="rgb(247,169,187)" stroke="rgb(247,169,187)" stroke-width="1.51"/><path d="M929,831L995,918L990,804Z" fill="rgb(247,168,185)" stroke="rgb(247,168,185)" stroke-width="1.51"/><path d="M762,929L887,905L771,815Z" fill="rgb(247,171,188)" stroke="rgb(247,171,188)" stroke-width="1.51"/><path d="M157,315L184,428L286,316Z" fill="rgb(249,224,229)" stroke="rgb(249,224,229)" stroke-width="1.51"/><path d="M687,926L762,929L771,815Z" fill="rgb(247,173,190)" stroke="rgb(247,173,190)" stroke-width="1.51"/><path d="M776,-125L641,-164L751,-48Z" fill="rgb(249,225,230)" stroke="rgb(249,225,230)" stroke-width="1.51"/><path d="M1044,-35L919,-139L909,-49Z" fill="rgb(249,217,224)" stroke="rgb(249,217,224)" stroke-width="1.51"/><path d="M776,-125L919,-139L641,-164Z" fill="rgb(249,223,229)" stroke="rgb(249,223,229)" stroke-width="1.51"/><path d="M1237,462L1289,309L1165,332Z" fill="rgb(248,186,200)" stroke="rgb(248,186,200)" stroke-width="1.51"/><path d="M641,-164L556,-155L544,-53Z" fill="rgb(249,231,234)" stroke="rgb(249,231,234)" stroke-width="1.51"/><path d="M1044,-35L1018,-175L919,-139Z" fill="rgb(249,216,223)" stroke="rgb(249,216,223)" stroke-width="1.51"/><path d="M1160,106L1120,-38L1029,119Z" fill="rgb(249,208,217)" stroke="rgb(249,208,217)" stroke-width="1.51"/><path d="M1232,80L1120,-38L1160,106Z" fill="rgb(249,206,215)" stroke="rgb(249,206,215)" stroke-width="1.51"/><path d="M184,428L195,590L306,442Z" fill="rgb(249,215,222)" stroke="rgb(249,215,222)" stroke-width="1.51"/><path d="M209,237L157,315L286,316Z" fill="rgb(249,227,232)" stroke="rgb(249,227,232)" stroke-width="1.51"/><path d="M184,428L74,430L195,590Z" fill="rgb(249,218,224)" stroke="rgb(249,218,224)" stroke-width="1.51"/><path d="M68,202L157,315L209,237Z" fill="rgb(249,232,235)" stroke="rgb(249,232,235)" stroke-width="1.51"/><path d="M1237,462L1360,470L1289,309Z" fill="rgb(248,181,196)" stroke="rgb(248,181,196)" stroke-width="1.51"/><path d="M1262,661L1279,571L1123,558Z" fill="rgb(247,173,190)" stroke="rgb(247,173,190)" stroke-width="1.51"/><path d="M1379,89L1232,80L1246,217Z" fill="rgb(249,198,209)" stroke="rgb(249,198,209)" stroke-width="1.51"/><path d="M1246,217L1232,80L1160,106Z" fill="rgb(249,200,211)" stroke="rgb(249,200,211)" stroke-width="1.51"/><path d="M187,713L299,786L323,711Z" fill="rgb(249,199,210)" stroke="rgb(249,199,210)" stroke-width="1.51"/><path d="M323,711L299,786L446,789Z" fill="rgb(249,195,207)" stroke="rgb(249,195,207)" stroke-width="1.51"/><path d="M446,789L448,909L566,830Z" fill="rgb(248,185,199)" stroke="rgb(248,185,199)" stroke-width="1.51"/><path d="M887,905L995,918L929,831Z" fill="rgb(246,167,185)" stroke="rgb(246,167,185)" stroke-width="1.51"/><path d="M1151,707L1262,661L1123,558Z" fill="rgb(247,172,189)" stroke="rgb(247,172,189)" stroke-width="1.51"/><path d="M882,1050L995,918L887,905Z" fill="rgb(246,166,185)" stroke="rgb(246,166,185)" stroke-width="1.51"/><path d="M318,914L448,909L446,789Z" fill="rgb(248,187,201)" stroke="rgb(248,187,201)" stroke-width="1.51"/><path d="M995,918L1125,834L990,804Z" fill="rgb(246,165,184)" stroke="rgb(246,165,184)" stroke-width="1.51"/><path d="M292,98L197,90L280,230Z" fill="rgb(249,234,237)" stroke="rgb(249,234,237)" stroke-width="1.51"/><path d="M402,-28L293,-30L292,98Z" fill="rgb(248,239,241)" stroke="rgb(248,239,241)" stroke-width="1.51"/><path d="M414,-145L293,-30L402,-28Z" fill="rgb(248,238,240)" stroke="rgb(248,238,240)" stroke-width="1.51"/><path d="M1289,799L1262,661L1151,707Z" fill="rgb(247,165,184)" stroke="rgb(247,165,184)" stroke-width="1.51"/><path d="M293,-30L197,90L292,98Z" fill="rgb(249,239,241)" stroke="rgb(249,239,241)" stroke-width="1.51"/><path d="M448,909L526,955L566,830Z" fill="rgb(248,181,196)" stroke="rgb(248,181,196)" stroke-width="1.51"/><path d="M687,926L664,1050L762,929Z" fill="rgb(247,174,191)" stroke="rgb(247,174,191)" stroke-width="1.51"/><path d="M762,929L882,1050L887,905Z" fill="rgb(247,169,187)" stroke="rgb(247,169,187)" stroke-width="1.51"/><path d="M556,-155L414,-145L544,-53Z" fill="rgb(248,233,236)" stroke="rgb(248,233,236)" stroke-width="1.51"/><path d="M292,-160L414,-145L556,-155Z" fill="rgb(248,236,239)" stroke="rgb(248,236,239)" stroke-width="1.51"/><path d="M919,-139L1018,-175L641,-164Z" fill="rgb(249,221,227)" stroke="rgb(249,221,227)" stroke-width="1.51"/><path d="M1119,-142L1018,-175L1044,-35Z" fill="rgb(249,213,221)" stroke="rgb(249,213,221)" stroke-width="1.51"/><path d="M1119,-142L1044,-35L1120,-38Z" fill="rgb(249,212,220)" stroke="rgb(249,212,220)" stroke-width="1.51"/><path d="M1279,571L1360,470L1237,462Z" fill="rgb(247,176,192)" stroke="rgb(247,176,192)" stroke-width="1.51"/><path d="M1289,309L1401,205L1246,217Z" fill="rgb(248,190,203)" stroke="rgb(248,190,203)" stroke-width="1.51"/><path d="M1352,595L1360,470L1279,571Z" fill="rgb(247,172,189)" stroke="rgb(247,172,189)" stroke-width="1.51"/><path d="M299,786L318,914L446,789Z" fill="rgb(248,191,204)" stroke="rgb(248,191,204)" stroke-width="1.51"/><path d="M195,590L187,713L308,593Z" fill="rgb(249,207,216)" stroke="rgb(249,207,216)" stroke-width="1.51"/><path d="M70,599L187,713L195,590Z" fill="rgb(249,209,218)" stroke="rgb(249,209,218)" stroke-width="1.51"/><path d="M1259,-140L1119,-142L1120,-38Z" fill="rgb(249,209,218)" stroke="rgb(249,209,218)" stroke-width="1.51"/><path d="M995,918L1116,912L1125,834Z" fill="rgb(246,161,181)" stroke="rgb(246,161,181)" stroke-width="1.51"/><path d="M1289,799L1352,694L1262,661Z" fill="rgb(246,163,182)" stroke="rgb(246,163,182)" stroke-width="1.51"/><path d="M1011,1058L1116,912L995,918Z" fill="rgb(246,162,182)" stroke="rgb(246,162,182)" stroke-width="1.51"/><path d="M1352,694L1352,595L1262,661Z" fill="rgb(246,167,185)" stroke="rgb(246,167,185)" stroke-width="1.51"/><path d="M1262,661L1352,595L1279,571Z" fill="rgb(247,170,187)" stroke="rgb(247,170,187)" stroke-width="1.51"/><path d="M1514,315L1385,318L1519,464Z" fill="rgb(248,178,194)" stroke="rgb(248,178,194)" stroke-width="1.51"/><path d="M1360,470L1385,318L1289,309Z" fill="rgb(248,182,197)" stroke="rgb(248,182,197)" stroke-width="1.51"/><path d="M1232,80L1273,-54L1120,-38Z" fill="rgb(249,208,216)" stroke="rgb(249,208,216)" stroke-width="1.51"/><path d="M157,315L74,430L184,428Z" fill="rgb(249,224,229)" stroke="rgb(249,224,229)" stroke-width="1.51"/><path d="M47,318L74,430L157,315Z" fill="rgb(249,228,232)" stroke="rgb(249,228,232)" stroke-width="1.51"/><path d="M526,955L664,1050L687,926Z" fill="rgb(247,177,193)" stroke="rgb(247,177,193)" stroke-width="1.51"/><path d="M515,1066L664,1050L526,955Z" fill="rgb(248,179,195)" stroke="rgb(248,179,195)" stroke-width="1.51"/><path d="M180,908L318,914L299,786Z" fill="rgb(249,192,205)" stroke="rgb(249,192,205)" stroke-width="1.51"/><path d="M406,1047L515,1066L526,955Z" fill="rgb(248,182,197)" stroke="rgb(248,182,197)" stroke-width="1.51"/><path d="M664,1050L773,1062L762,929Z" fill="rgb(247,173,190)" stroke="rgb(247,173,190)" stroke-width="1.51"/><path d="M773,1062L882,1050L762,929Z" fill="rgb(247,170,188)" stroke="rgb(247,170,188)" stroke-width="1.51"/><path d="M197,90L68,202L209,237Z" fill="rgb(249,236,238)" stroke="rgb(249,236,238)" stroke-width="1.51"/><path d="M51,101L68,202L197,90Z" fill="rgb(248,240,242)" stroke="rgb(248,240,242)" stroke-width="1.51"/><path d="M68,202L47,318L157,315Z" fill="rgb(249,232,236)" stroke="rgb(249,232,236)" stroke-width="1.51"/><path d="M293,-30L163,-6L197,90Z" fill="rgb(248,243,244)" stroke="rgb(248,243,244)" stroke-width="1.51"/><path d="M150,-124L163,-6L293,-30Z" fill="rgb(248,244,245)" stroke="rgb(248,244,245)" stroke-width="1.51"/><path d="M1385,318L1401,205L1289,309Z" fill="rgb(248,186,200)" stroke="rgb(248,186,200)" stroke-width="1.51"/><path d="M1514,315L1401,205L1385,318Z" fill="rgb(248,184,198)" stroke="rgb(248,184,198)" stroke-width="1.51"/><path d="M74,430L70,599L195,590Z" fill="rgb(249,216,223)" stroke="rgb(249,216,223)" stroke-width="1.51"/><path d="M187,713L154,818L299,786Z" fill="rgb(249,199,210)" stroke="rgb(249,199,210)" stroke-width="1.51"/><path d="M47,670L70,599L-34,576Z" fill="rgb(249,215,222)" stroke="rgb(249,215,222)" stroke-width="1.51"/><path d="M1379,89L1273,-54L1232,80Z" fill="rgb(248,203,212)" stroke="rgb(248,203,212)" stroke-width="1.51"/><path d="M1289,799L1151,707L1125,834Z" fill="rgb(246,164,183)" stroke="rgb(246,164,183)" stroke-width="1.51"/><path d="M1352,595L1484,545L1360,470Z" fill="rgb(246,170,188)" stroke="rgb(246,170,188)" stroke-width="1.51"/><path d="M57,-173L292,-160L641,-164Z" fill="rgb(248,240,241)" stroke="rgb(248,240,241)" stroke-width="1.51"/><path d="M641,-164L292,-160L556,-155Z" fill="rgb(248,234,237)" stroke="rgb(248,234,237)" stroke-width="1.51"/><path d="M414,-145L292,-160L293,-30Z" fill="rgb(248,239,241)" stroke="rgb(248,239,241)" stroke-width="1.51"/><path d="M1264,935L1289,799L1125,834Z" fill="rgb(246,158,178)" stroke="rgb(246,158,178)" stroke-width="1.51"/><path d="M1401,205L1379,89L1246,217Z" fill="rgb(249,193,205)" stroke="rgb(249,193,205)" stroke-width="1.51"/><path d="M406,1047L526,955L448,909Z" fill="rgb(248,183,198)" stroke="rgb(248,183,198)" stroke-width="1.51"/><path d="M664,1050L515,1066L773,1062Z" fill="rgb(247,176,192)" stroke="rgb(247,176,192)" stroke-width="1.51"/><path d="M318,914L406,1047L448,909Z" fill="rgb(248,185,200)" stroke="rgb(248,185,200)" stroke-width="1.51"/><path d="M47,670L154,818L187,713Z" fill="rgb(249,205,214)" stroke="rgb(249,205,214)" stroke-width="1.51"/><path d="M1116,912L1264,935L1125,834Z" fill="rgb(246,158,179)" stroke="rgb(246,158,179)" stroke-width="1.51"/><path d="M882,1050L1011,1058L995,918Z" fill="rgb(246,165,184)" stroke="rgb(246,165,184)" stroke-width="1.51"/><path d="M773,1062L1011,1058L882,1050Z" fill="rgb(246,168,186)" stroke="rgb(246,168,186)" stroke-width="1.51"/><path d="M45,-56L51,101L163,-6Z" fill="rgb(248,248,248)" stroke="rgb(248,248,248)" stroke-width="1.51"/><path d="M163,-6L51,101L197,90Z" fill="rgb(248,243,244)" stroke="rgb(248,243,244)" stroke-width="1.51"/><path d="M-37,232L-50,350L47,318Z" fill="rgb(248,234,237)" stroke="rgb(248,234,237)" stroke-width="1.51"/><path d="M329,1060L406,1047L318,914Z" fill="rgb(248,187,201)" stroke="rgb(248,187,201)" stroke-width="1.51"/><path d="M-34,576L70,599L74,430Z" fill="rgb(249,219,226)" stroke="rgb(249,219,226)" stroke-width="1.51"/><path d="M70,599L47,670L187,713Z" fill="rgb(249,210,218)" stroke="rgb(249,210,218)" stroke-width="1.51"/><path d="M1373,-159L1259,-140L1273,-54Z" fill="rgb(249,204,214)" stroke="rgb(249,204,214)" stroke-width="1.51"/><path d="M1273,-54L1259,-140L1120,-38Z" fill="rgb(249,208,216)" stroke="rgb(249,208,216)" stroke-width="1.51"/><path d="M1119,-142L1259,-140L1018,-175Z" fill="rgb(249,211,219)" stroke="rgb(249,211,219)" stroke-width="1.51"/><path d="M52,904L180,908L154,818Z" fill="rgb(249,197,208)" stroke="rgb(249,197,208)" stroke-width="1.51"/><path d="M154,818L180,908L299,786Z" fill="rgb(249,196,207)" stroke="rgb(249,196,207)" stroke-width="1.51"/><path d="M1289,799L1366,833L1352,694Z" fill="rgb(246,159,179)" stroke="rgb(246,159,179)" stroke-width="1.51"/><path d="M1164,1054L1264,935L1116,912Z" fill="rgb(245,157,178)" stroke="rgb(245,157,178)" stroke-width="1.51"/><path d="M292,-160L150,-124L293,-30Z" fill="rgb(248,242,244)" stroke="rgb(248,242,244)" stroke-width="1.51"/><path d="M1475,669L1352,595L1352,694Z" fill="rgb(246,164,183)" stroke="rgb(246,164,183)" stroke-width="1.51"/><path d="M1475,669L1484,545L1352,595Z" fill="rgb(246,165,184)" stroke="rgb(246,165,184)" stroke-width="1.51"/><path d="M1401,205L1474,101L1379,89Z" fill="rgb(248,193,205)" stroke="rgb(248,193,205)" stroke-width="1.51"/><path d="M1264,935L1366,833L1289,799Z" fill="rgb(245,155,176)" stroke="rgb(245,155,176)" stroke-width="1.51"/><path d="M47,318L-50,350L74,430Z" fill="rgb(249,229,234)" stroke="rgb(249,229,234)" stroke-width="1.51"/><path d="M-37,232L47,318L68,202Z" fill="rgb(248,236,239)" stroke="rgb(248,236,239)" stroke-width="1.51"/><path d="M-41,67L-37,232L51,101Z" fill="rgb(248,244,245)" stroke="rgb(248,244,245)" stroke-width="1.51"/><path d="M51,101L-37,232L68,202Z" fill="rgb(248,240,242)" stroke="rgb(248,240,242)" stroke-width="1.51"/><path d="M-50,350L-54,436L74,430Z" fill="rgb(249,228,232)" stroke="rgb(249,228,232)" stroke-width="1.51"/><path d="M1519,464L1385,318L1360,470Z" fill="rgb(247,176,192)" stroke="rgb(247,176,192)" stroke-width="1.51"/><path d="M1379,89L1409,-49L1273,-54Z" fill="rgb(249,203,213)" stroke="rgb(249,203,213)" stroke-width="1.51"/><path d="M406,1047L329,1060L515,1066Z" fill="rgb(248,184,199)" stroke="rgb(248,184,199)" stroke-width="1.51"/><path d="M187,1061L329,1060L318,914Z" fill="rgb(249,190,202)" stroke="rgb(249,190,202)" stroke-width="1.51"/><path d="M-54,436L-34,576L74,430Z" fill="rgb(249,224,229)" stroke="rgb(249,224,229)" stroke-width="1.51"/><path d="M47,670L37,822L154,818Z" fill="rgb(249,204,214)" stroke="rgb(249,204,214)" stroke-width="1.51"/><path d="M1484,545L1519,464L1360,470Z" fill="rgb(247,171,188)" stroke="rgb(247,171,188)" stroke-width="1.51"/><path d="M1619,424L1519,464L1605,561Z" fill="rgb(247,172,189)" stroke="rgb(247,172,189)" stroke-width="1.51"/><path d="M1526,184L1474,101L1401,205Z" fill="rgb(249,190,203)" stroke="rgb(249,190,203)" stroke-width="1.51"/><path d="M1366,833L1475,669L1352,694Z" fill="rgb(246,159,179)" stroke="rgb(246,159,179)" stroke-width="1.51"/><path d="M1011,1058L1164,1054L1116,912Z" fill="rgb(246,160,180)" stroke="rgb(246,160,180)" stroke-width="1.51"/><path d="M1264,935L1382,956L1366,833Z" fill="rgb(245,151,173)" stroke="rgb(245,151,173)" stroke-width="1.51"/><path d="M1474,101L1409,-49L1379,89Z" fill="rgb(249,198,209)" stroke="rgb(249,198,209)" stroke-width="1.51"/><path d="M150,-124L45,-56L163,-6Z" fill="rgb(248,247,247)" stroke="rgb(248,247,247)" stroke-width="1.51"/><path d="M1474,101L1490,-48L1409,-49Z" fill="rgb(249,200,210)" stroke="rgb(249,200,210)" stroke-width="1.51"/><path d="M1514,315L1526,184L1401,205Z" fill="rgb(248,186,200)" stroke="rgb(248,186,200)" stroke-width="1.51"/><path d="M1643,224L1526,184L1514,315Z" fill="rgb(248,186,200)" stroke="rgb(248,186,200)" stroke-width="1.51"/><path d="M180,908L187,1061L318,914Z" fill="rgb(248,192,204)" stroke="rgb(248,192,204)" stroke-width="1.51"/><path d="M-90,706L37,822L47,670Z" fill="rgb(249,209,217)" stroke="rgb(249,209,217)" stroke-width="1.51"/><path d="M1366,833L1516,835L1475,669Z" fill="rgb(245,154,176)" stroke="rgb(245,154,176)" stroke-width="1.51"/><path d="M1164,1054L1241,1038L1264,935Z" fill="rgb(245,155,177)" stroke="rgb(245,155,177)" stroke-width="1.51"/><path d="M45,-56L-41,67L51,101Z" fill="rgb(247,248,249)" stroke="rgb(247,248,249)" stroke-width="1.51"/><path d="M-37,232L-163,315L-50,350Z" fill="rgb(248,234,237)" stroke="rgb(248,234,237)" stroke-width="1.51"/><path d="M-180,550L-34,576L-54,436Z" fill="rgb(249,222,227)" stroke="rgb(249,222,227)" stroke-width="1.51"/><path d="M1409,-49L1373,-159L1273,-54Z" fill="rgb(249,203,213)" stroke="rgb(249,203,213)" stroke-width="1.51"/><path d="M1259,-140L1373,-159L1018,-175Z" fill="rgb(249,208,216)" stroke="rgb(249,208,216)" stroke-width="1.51"/><path d="M1482,-169L1373,-159L1409,-49Z" fill="rgb(249,200,211)" stroke="rgb(249,200,211)" stroke-width="1.51"/><path d="M37,822L52,904L154,818Z" fill="rgb(249,199,210)" stroke="rgb(249,199,210)" stroke-width="1.51"/><path d="M-86,958L52,904L37,822Z" fill="rgb(249,200,210)" stroke="rgb(249,200,210)" stroke-width="1.51"/><path d="M1241,1038L1382,956L1264,935Z" fill="rgb(245,153,175)" stroke="rgb(245,153,175)" stroke-width="1.51"/><path d="M52,904L187,1061L180,908Z" fill="rgb(249,195,206)" stroke="rgb(249,195,206)" stroke-width="1.51"/><path d="M329,1060L44,1074L515,1066Z" fill="rgb(248,189,202)" stroke="rgb(248,189,202)" stroke-width="1.51"/><path d="M45,-56L-37,-36L-41,67Z" fill="rgb(247,251,251)" stroke="rgb(247,251,251)" stroke-width="1.51"/><path d="M150,-124L57,-173L45,-56Z" fill="rgb(248,248,248)" stroke="rgb(248,248,248)" stroke-width="1.51"/><path d="M292,-160L57,-173L150,-124Z" fill="rgb(248,245,246)" stroke="rgb(248,245,246)" stroke-width="1.51"/><path d="M1018,-175L57,-173L641,-164Z" fill="rgb(249,231,234)" stroke="rgb(249,231,234)" stroke-width="1.51"/><path d="M1594,97L1490,-48L1474,101Z" fill="rgb(249,197,208)" stroke="rgb(249,197,208)" stroke-width="1.51"/><path d="M-38,-139L-37,-36L45,-56Z" fill="rgb(247,251,251)" stroke="rgb(247,251,251)" stroke-width="1.51"/><path d="M1526,184L1594,97L1474,101Z" fill="rgb(248,193,204)" stroke="rgb(248,193,204)" stroke-width="1.51"/><path d="M1519,464L1605,343L1514,315Z" fill="rgb(248,178,194)" stroke="rgb(248,178,194)" stroke-width="1.51"/><path d="M1619,424L1605,343L1519,464Z" fill="rgb(247,176,192)" stroke="rgb(247,176,192)" stroke-width="1.51"/><path d="M1519,464L1484,545L1605,561Z" fill="rgb(247,169,187)" stroke="rgb(247,169,187)" stroke-width="1.51"/><path d="M-34,576L-90,706L47,670Z" fill="rgb(249,214,222)" stroke="rgb(249,214,222)" stroke-width="1.51"/><path d="M-173,661L-90,706L-34,576Z" fill="rgb(249,214,222)" stroke="rgb(249,214,222)" stroke-width="1.51"/><path d="M-189,440L-54,436L-50,350Z" fill="rgb(249,228,232)" stroke="rgb(249,228,232)" stroke-width="1.51"/><path d="M-163,315L-37,232L-180,218Z" fill="rgb(248,237,239)" stroke="rgb(248,237,239)" stroke-width="1.51"/><path d="M1605,561L1484,545L1475,669Z" fill="rgb(246,165,184)" stroke="rgb(246,165,184)" stroke-width="1.51"/><path d="M1641,712L1605,561L1475,669Z" fill="rgb(246,162,182)" stroke="rgb(246,162,182)" stroke-width="1.51"/><path d="M-180,218L-37,232L-41,67Z" fill="rgb(248,241,243)" stroke="rgb(248,241,243)" stroke-width="1.51"/><path d="M1509,945L1516,835L1366,833Z" fill="rgb(244,149,172)" stroke="rgb(244,149,172)" stroke-width="1.51"/><path d="M1643,224L1594,97L1526,184Z" fill="rgb(249,190,203)" stroke="rgb(249,190,203)" stroke-width="1.51"/><path d="M1643,224L1514,315L1605,343Z" fill="rgb(248,183,197)" stroke="rgb(248,183,197)" stroke-width="1.51"/><path d="M52,904L44,1074L187,1061Z" fill="rgb(249,196,208)" stroke="rgb(249,196,208)" stroke-width="1.51"/><path d="M-90,706L-86,792L37,822Z" fill="rgb(249,207,216)" stroke="rgb(249,207,216)" stroke-width="1.51"/><path d="M-164,830L-86,792L-90,706Z" fill="rgb(249,207,216)" stroke="rgb(249,207,216)" stroke-width="1.51"/><path d="M-163,315L-189,440L-50,350Z" fill="rgb(249,230,234)" stroke="rgb(249,230,234)" stroke-width="1.51"/><path d="M-163,315L-180,218L-189,440Z" fill="rgb(248,233,236)" stroke="rgb(248,233,236)" stroke-width="1.51"/><path d="M-198,75L-180,218L-41,67Z" fill="rgb(248,244,245)" stroke="rgb(248,244,245)" stroke-width="1.51"/><path d="M-189,440L-180,550L-54,436Z" fill="rgb(249,224,229)" stroke="rgb(249,224,229)" stroke-width="1.51"/><path d="M1641,712L1643,224L1619,424Z" fill="rgb(247,173,190)" stroke="rgb(247,173,190)" stroke-width="1.51"/><path d="M1619,424L1643,224L1605,343Z" fill="rgb(248,180,196)" stroke="rgb(248,180,196)" stroke-width="1.51"/><path d="M-177,-53L-198,75L-41,67Z" fill="rgb(247,249,249)" stroke="rgb(247,249,249)" stroke-width="1.51"/><path d="M57,-173L-38,-139L45,-56Z" fill="rgb(247,250,250)" stroke="rgb(247,250,250)" stroke-width="1.51"/><path d="M1490,-48L1482,-169L1409,-49Z" fill="rgb(249,200,210)" stroke="rgb(249,200,210)" stroke-width="1.51"/><path d="M1373,-159L1482,-169L1018,-175Z" fill="rgb(249,205,214)" stroke="rgb(249,205,214)" stroke-width="1.51"/><path d="M1601,-49L1482,-169L1490,-48Z" fill="rgb(249,200,210)" stroke="rgb(249,200,210)" stroke-width="1.51"/><path d="M1382,956L1509,945L1366,833Z" fill="rgb(244,148,171)" stroke="rgb(244,148,171)" stroke-width="1.51"/><path d="M1241,1038L1385,1060L1382,956Z" fill="rgb(245,151,174)" stroke="rgb(245,151,174)" stroke-width="1.51"/><path d="M1164,1054L1385,1060L1241,1038Z" fill="rgb(245,154,175)" stroke="rgb(245,154,175)" stroke-width="1.51"/><path d="M1011,1058L1385,1060L1164,1054Z" fill="rgb(245,157,178)" stroke="rgb(245,157,178)" stroke-width="1.51"/><path d="M773,1062L1385,1060L1011,1058Z" fill="rgb(246,161,181)" stroke="rgb(246,161,181)" stroke-width="1.51"/><path d="M1525,1063L1385,1060L773,1062Z" fill="rgb(245,155,176)" stroke="rgb(245,155,176)" stroke-width="1.51"/><path d="M-195,957L-173,661L-180,550Z" fill="rgb(249,210,218)" stroke="rgb(249,210,218)" stroke-width="1.51"/><path d="M-180,550L-173,661L-34,576Z" fill="rgb(249,217,224)" stroke="rgb(249,217,224)" stroke-width="1.51"/><path d="M1385,1060L1509,945L1382,956Z" fill="rgb(244,148,171)" stroke="rgb(244,148,171)" stroke-width="1.51"/><path d="M1516,835L1641,712L1475,669Z" fill="rgb(245,157,178)" stroke="rgb(245,157,178)" stroke-width="1.51"/><path d="M1605,561L1641,712L1619,424Z" fill="rgb(246,167,185)" stroke="rgb(246,167,185)" stroke-width="1.51"/><path d="M1608,827L1641,712L1516,835Z" fill="rgb(245,154,175)" stroke="rgb(245,154,175)" stroke-width="1.51"/><path d="M1648,-129L1601,-49L1594,97Z" fill="rgb(249,200,210)" stroke="rgb(249,200,210)" stroke-width="1.51"/><path d="M1594,97L1601,-49L1490,-48Z" fill="rgb(249,200,210)" stroke="rgb(249,200,210)" stroke-width="1.51"/><path d="M-50,1034L44,1074L52,904Z" fill="rgb(249,199,210)" stroke="rgb(249,199,210)" stroke-width="1.51"/><path d="M187,1061L44,1074L329,1060Z" fill="rgb(248,193,205)" stroke="rgb(248,193,205)" stroke-width="1.51"/><path d="M515,1066L1525,1063L773,1062Z" fill="rgb(246,166,184)" stroke="rgb(246,166,184)" stroke-width="1.51"/><path d="M-86,958L37,822L-86,792Z" fill="rgb(249,202,212)" stroke="rgb(249,202,212)" stroke-width="1.51"/><path d="M-180,218L-198,75L-189,440Z" fill="rgb(248,237,240)" stroke="rgb(248,237,240)" stroke-width="1.51"/><path d="M-177,-53L-41,67L-37,-36Z" fill="rgb(247,251,251)" stroke="rgb(247,251,251)" stroke-width="1.51"/><path d="M1509,945L1608,827L1516,835Z" fill="rgb(245,149,172)" stroke="rgb(245,149,172)" stroke-width="1.51"/><path d="M-164,830L-86,958L-86,792Z" fill="rgb(249,202,212)" stroke="rgb(249,202,212)" stroke-width="1.51"/><path d="M-195,957L-164,830L-173,661Z" fill="rgb(249,204,214)" stroke="rgb(249,204,214)" stroke-width="1.51"/><path d="M-173,661L-164,830L-90,706Z" fill="rgb(249,209,217)" stroke="rgb(249,209,217)" stroke-width="1.51"/><path d="M-38,-139L-177,-53L-37,-36Z" fill="rgb(247,251,251)" stroke="rgb(247,251,251)" stroke-width="1.51"/><path d="M-198,1056L-50,1034L-86,958Z" fill="rgb(249,200,210)" stroke="rgb(249,200,210)" stroke-width="1.51"/><path d="M-86,958L-50,1034L52,904Z" fill="rgb(249,200,210)" stroke="rgb(249,200,210)" stroke-width="1.51"/><path d="M-38,-139L-155,-152L-177,-53Z" fill="rgb(247,251,251)" stroke="rgb(247,251,251)" stroke-width="1.51"/><path d="M57,-173L-155,-152L-38,-139Z" fill="rgb(247,251,251)" stroke="rgb(247,251,251)" stroke-width="1.51"/><path d="M1509,945L1634,936L1608,827Z" fill="rgb(244,147,171)" stroke="rgb(244,147,171)" stroke-width="1.51"/><path d="M1385,1060L1525,1063L1509,945Z" fill="rgb(244,147,171)" stroke="rgb(244,147,171)" stroke-width="1.51"/><path d="M44,1074L1525,1063L515,1066Z" fill="rgb(247,174,191)" stroke="rgb(247,174,191)" stroke-width="1.51"/><path d="M1601,-49L1648,-129L1482,-169Z" fill="rgb(249,200,210)" stroke="rgb(249,200,210)" stroke-width="1.51"/><path d="M1643,224L1648,-129L1594,97Z" fill="rgb(249,196,207)" stroke="rgb(249,196,207)" stroke-width="1.51"/><path d="M1641,712L1648,-129L1643,224Z" fill="rgb(248,184,198)" stroke="rgb(248,184,198)" stroke-width="1.51"/><path d="M1621,1062L1634,936L1509,945Z" fill="rgb(244,147,171)" stroke="rgb(244,147,171)" stroke-width="1.51"/><path d="M1608,827L1634,936L1641,712Z" fill="rgb(245,152,174)" stroke="rgb(245,152,174)" stroke-width="1.51"/><path d="M-198,75L-195,957L-189,440Z" fill="rgb(249,223,229)" stroke="rgb(249,223,229)" stroke-width="1.51"/><path d="M-189,440L-195,957L-180,550Z" fill="rgb(249,214,222)" stroke="rgb(249,214,222)" stroke-width="1.51"/><path d="M-164,830L-195,957L-86,958Z" fill="rgb(249,200,210)" stroke="rgb(249,200,210)" stroke-width="1.51"/><path d="M1525,1063L1621,1062L1509,945Z" fill="rgb(244,147,171)" stroke="rgb(244,147,171)" stroke-width="1.51"/><path d="M-195,957L-198,1056L-86,958Z" fill="rgb(249,200,210)" stroke="rgb(249,200,210)" stroke-width="1.51"/><path d="M-50,1034L-198,1056L44,1074Z" fill="rgb(249,200,210)" stroke="rgb(249,200,210)" stroke-width="1.51"/><path d="M-198,75L-198,1056L-195,957Z" fill="rgb(249,211,220)" stroke="rgb(249,211,220)" stroke-width="1.51"/></svg>