<svg xmlns="http://www.w3.org/2000/svg" width="1440" height="900"><path d="M714,513L706,341L515,353Z" fill="rgb(253,202,212)" stroke="rgb(253,202,212)" stroke-width="1.51"/><path d="M515,353L495,577L714,513Z" fill="rgb(253,200,210)" stroke="rgb(253,200,210)" stroke-width="1.51"/><path d="M515,353L320,511L495,577Z" fill="rgb(253,205,214)" stroke="rgb(253,205,214)" stroke-width="1.51"/><path d="M706,341L484,175L515,353Z" fill="rgb(254,211,220)" stroke="rgb(254,211,220)" stroke-width="1.51"/><path d="M714,513L929,366L706,341Z" fill="rgb(253,196,208)" stroke="rgb(253,196,208)" stroke-width="1.51"/><path d="M683,721L880,559L714,513Z" fill="rgb(251,185,199)" stroke="rgb(251,185,199)" stroke-width="1.51"/><path d="M495,577L683,721L714,513Z" fill="rgb(252,190,203)" stroke="rgb(252,190,203)" stroke-width="1.51"/><path d="M706,341L721,144L484,175Z" fill="rgb(254,213,221)" stroke="rgb(254,213,221)" stroke-width="1.51"/><path d="M952,183L721,144L706,341Z" fill="rgb(254,207,216)" stroke="rgb(254,207,216)" stroke-width="1.51"/><path d="M329,321L320,511L515,353Z" fill="rgb(254,212,220)" stroke="rgb(254,212,220)" stroke-width="1.51"/><path d="M495,577L553,759L683,721Z" fill="rgb(251,187,201)" stroke="rgb(251,187,201)" stroke-width="1.51"/><path d="M484,175L329,321L515,353Z" fill="rgb(254,217,224)" stroke="rgb(254,217,224)" stroke-width="1.51"/><path d="M880,559L929,366L714,513Z" fill="rgb(252,189,202)" stroke="rgb(252,189,202)" stroke-width="1.51"/><path d="M328,749L553,759L495,577Z" fill="rgb(252,191,204)" stroke="rgb(252,191,204)" stroke-width="1.51"/><path d="M484,175L345,166L329,321Z" fill="rgb(255,222,229)" stroke="rgb(255,222,229)" stroke-width="1.51"/><path d="M541,-14L345,166L484,175Z" fill="rgb(255,227,231)" stroke="rgb(255,227,231)" stroke-width="1.51"/><path d="M929,366L952,183L706,341Z" fill="rgb(253,200,210)" stroke="rgb(253,200,210)" stroke-width="1.51"/><path d="M320,511L328,749L495,577Z" fill="rgb(253,199,210)" stroke="rgb(253,199,210)" stroke-width="1.51"/><path d="M749,-47L541,-14L721,144Z" fill="rgb(255,224,229)" stroke="rgb(255,224,229)" stroke-width="1.51"/><path d="M721,144L541,-14L484,175Z" fill="rgb(254,223,228)" stroke="rgb(254,223,228)" stroke-width="1.51"/><path d="M753,946L929,784L683,721Z" fill="rgb(249,170,189)" stroke="rgb(249,170,189)" stroke-width="1.51"/><path d="M683,721L929,784L880,559Z" fill="rgb(250,177,193)" stroke="rgb(250,177,193)" stroke-width="1.51"/><path d="M1157,571L1124,332L929,366Z" fill="rgb(251,184,198)" stroke="rgb(251,184,198)" stroke-width="1.51"/><path d="M929,366L1124,332L952,183Z" fill="rgb(252,195,207)" stroke="rgb(252,195,207)" stroke-width="1.51"/><path d="M753,946L683,721L553,759Z" fill="rgb(250,176,192)" stroke="rgb(250,176,192)" stroke-width="1.51"/><path d="M328,749L528,916L553,759Z" fill="rgb(251,183,198)" stroke="rgb(251,183,198)" stroke-width="1.51"/><path d="M905,-17L749,-47L721,144Z" fill="rgb(254,219,225)" stroke="rgb(254,219,225)" stroke-width="1.51"/><path d="M329,321L121,375L320,511Z" fill="rgb(254,217,223)" stroke="rgb(254,217,223)" stroke-width="1.51"/><path d="M320,511L115,585L328,749Z" fill="rgb(253,203,213)" stroke="rgb(253,203,213)" stroke-width="1.51"/><path d="M100,175L121,375L329,321Z" fill="rgb(255,226,231)" stroke="rgb(255,226,231)" stroke-width="1.51"/><path d="M1157,571L929,366L880,559Z" fill="rgb(251,183,197)" stroke="rgb(251,183,197)" stroke-width="1.51"/><path d="M952,183L905,-17L721,144Z" fill="rgb(254,212,220)" stroke="rgb(254,212,220)" stroke-width="1.51"/><path d="M121,375L115,585L320,511Z" fill="rgb(254,214,222)" stroke="rgb(254,214,222)" stroke-width="1.51"/><path d="M328,749L323,970L528,916Z" fill="rgb(251,182,197)" stroke="rgb(251,182,197)" stroke-width="1.51"/><path d="M528,916L753,946L553,759Z" fill="rgb(249,173,191)" stroke="rgb(249,173,191)" stroke-width="1.51"/><path d="M1101,129L905,-17L952,183Z" fill="rgb(254,207,216)" stroke="rgb(254,207,216)" stroke-width="1.51"/><path d="M1100,754L1157,571L880,559Z" fill="rgb(249,172,190)" stroke="rgb(249,172,190)" stroke-width="1.51"/><path d="M1124,332L1101,129L952,183Z" fill="rgb(253,197,209)" stroke="rgb(253,197,209)" stroke-width="1.51"/><path d="M1134,-25L1101,129L1351,182Z" fill="rgb(253,199,211)" stroke="rgb(253,199,211)" stroke-width="1.51"/><path d="M121,375L-98,554L115,585Z" fill="rgb(254,218,225)" stroke="rgb(254,218,225)" stroke-width="1.51"/><path d="M345,166L100,175L329,321Z" fill="rgb(255,228,232)" stroke="rgb(255,228,232)" stroke-width="1.51"/><path d="M334,-73L100,175L345,166Z" fill="rgb(255,236,238)" stroke="rgb(255,236,238)" stroke-width="1.51"/><path d="M541,-14L334,-73L345,166Z" fill="rgb(255,234,237)" stroke="rgb(255,234,237)" stroke-width="1.51"/><path d="M508,-257L334,-73L541,-14Z" fill="rgb(255,234,237)" stroke="rgb(255,234,237)" stroke-width="1.51"/><path d="M1154,940L1100,754L929,784Z" fill="rgb(247,159,180)" stroke="rgb(247,159,180)" stroke-width="1.51"/><path d="M929,784L1100,754L880,559Z" fill="rgb(249,171,188)" stroke="rgb(249,171,188)" stroke-width="1.51"/><path d="M115,585L128,772L328,749Z" fill="rgb(253,200,211)" stroke="rgb(253,200,211)" stroke-width="1.51"/><path d="M128,772L323,970L328,749Z" fill="rgb(252,190,203)" stroke="rgb(252,190,203)" stroke-width="1.51"/><path d="M528,916L542,1135L753,946Z" fill="rgb(249,172,190)" stroke="rgb(249,172,190)" stroke-width="1.51"/><path d="M753,946L909,977L929,784Z" fill="rgb(247,162,182)" stroke="rgb(247,162,182)" stroke-width="1.51"/><path d="M737,1137L909,977L753,946Z" fill="rgb(248,165,184)" stroke="rgb(248,165,184)" stroke-width="1.51"/><path d="M749,-47L748,-227L541,-14Z" fill="rgb(255,225,230)" stroke="rgb(255,225,230)" stroke-width="1.51"/><path d="M949,-220L748,-227L749,-47Z" fill="rgb(254,220,226)" stroke="rgb(254,220,226)" stroke-width="1.51"/><path d="M949,-220L749,-47L905,-17Z" fill="rgb(254,218,225)" stroke="rgb(254,218,225)" stroke-width="1.51"/><path d="M1101,129L1134,-25L905,-17Z" fill="rgb(254,209,218)" stroke="rgb(254,209,218)" stroke-width="1.51"/><path d="M1351,182L1101,129L1124,332Z" fill="rgb(252,192,205)" stroke="rgb(252,192,205)" stroke-width="1.51"/><path d="M1157,571L1306,341L1124,332Z" fill="rgb(250,180,195)" stroke="rgb(250,180,195)" stroke-width="1.51"/><path d="M1338,550L1306,341L1157,571Z" fill="rgb(249,172,190)" stroke="rgb(249,172,190)" stroke-width="1.51"/><path d="M748,-227L508,-257L541,-14Z" fill="rgb(255,228,233)" stroke="rgb(255,228,233)" stroke-width="1.51"/><path d="M100,175L-84,328L121,375Z" fill="rgb(255,231,235)" stroke="rgb(255,231,235)" stroke-width="1.51"/><path d="M115,585L-58,726L128,772Z" fill="rgb(253,206,216)" stroke="rgb(253,206,216)" stroke-width="1.51"/><path d="M-112,177L-84,328L100,175Z" fill="rgb(255,237,240)" stroke="rgb(255,237,240)" stroke-width="1.51"/><path d="M91,-76L100,175L334,-73Z" fill="rgb(255,244,245)" stroke="rgb(255,244,245)" stroke-width="1.51"/><path d="M323,970L542,1135L528,916Z" fill="rgb(250,178,194)" stroke="rgb(250,178,194)" stroke-width="1.51"/><path d="M542,1135L737,1137L753,946Z" fill="rgb(249,169,188)" stroke="rgb(249,169,188)" stroke-width="1.51"/><path d="M323,970L311,1160L542,1135Z" fill="rgb(250,181,196)" stroke="rgb(250,181,196)" stroke-width="1.51"/><path d="M128,772L158,985L323,970Z" fill="rgb(251,188,202)" stroke="rgb(251,188,202)" stroke-width="1.51"/><path d="M-62,965L158,985L128,772Z" fill="rgb(252,193,205)" stroke="rgb(252,193,205)" stroke-width="1.51"/><path d="M-84,328L-98,554L121,375Z" fill="rgb(255,226,231)" stroke="rgb(255,226,231)" stroke-width="1.51"/><path d="M508,-257L341,-239L334,-73Z" fill="rgb(255,236,239)" stroke="rgb(255,236,239)" stroke-width="1.51"/><path d="M341,-239L91,-76L334,-73Z" fill="rgb(255,241,243)" stroke="rgb(255,241,243)" stroke-width="1.51"/><path d="M1134,-25L949,-220L905,-17Z" fill="rgb(254,213,221)" stroke="rgb(254,213,221)" stroke-width="1.51"/><path d="M748,-227L1288,-263L508,-257Z" fill="rgb(254,219,225)" stroke="rgb(254,219,225)" stroke-width="1.51"/><path d="M1352,712L1338,550L1157,571Z" fill="rgb(248,164,184)" stroke="rgb(248,164,184)" stroke-width="1.51"/><path d="M1352,712L1157,571L1100,754Z" fill="rgb(248,163,182)" stroke="rgb(248,163,182)" stroke-width="1.51"/><path d="M-98,554L-58,726L115,585Z" fill="rgb(254,213,221)" stroke="rgb(254,213,221)" stroke-width="1.51"/><path d="M909,977L1154,940L929,784Z" fill="rgb(246,157,178)" stroke="rgb(246,157,178)" stroke-width="1.51"/><path d="M1092,1170L1154,940L909,977Z" fill="rgb(246,155,177)" stroke="rgb(246,155,177)" stroke-width="1.51"/><path d="M-300,361L-277,565L-98,554Z" fill="rgb(255,221,227)" stroke="rgb(255,221,227)" stroke-width="1.51"/><path d="M-99,-37L-112,177L100,175Z" fill="rgb(255,244,246)" stroke="rgb(255,244,246)" stroke-width="1.51"/><path d="M1306,341L1351,182L1124,332Z" fill="rgb(251,185,199)" stroke="rgb(251,185,199)" stroke-width="1.51"/><path d="M1134,-25L1133,-234L949,-220Z" fill="rgb(253,210,219)" stroke="rgb(253,210,219)" stroke-width="1.51"/><path d="M1504,322L1351,182L1306,341Z" fill="rgb(250,180,196)" stroke="rgb(250,180,196)" stroke-width="1.51"/><path d="M1338,550L1504,322L1306,341Z" fill="rgb(249,173,190)" stroke="rgb(249,173,190)" stroke-width="1.51"/><path d="M1154,940L1352,712L1100,754Z" fill="rgb(247,155,177)" stroke="rgb(247,155,177)" stroke-width="1.51"/><path d="M158,985L311,1160L323,970Z" fill="rgb(251,186,200)" stroke="rgb(251,186,200)" stroke-width="1.51"/><path d="M542,1135L311,1160L737,1137Z" fill="rgb(250,175,192)" stroke="rgb(250,175,192)" stroke-width="1.51"/><path d="M311,1160L938,1156L737,1137Z" fill="rgb(249,170,188)" stroke="rgb(249,170,188)" stroke-width="1.51"/><path d="M737,1137L938,1156L909,977Z" fill="rgb(247,162,182)" stroke="rgb(247,162,182)" stroke-width="1.51"/><path d="M1335,-68L1133,-234L1134,-25Z" fill="rgb(253,205,215)" stroke="rgb(253,205,215)" stroke-width="1.51"/><path d="M949,-220L1288,-263L748,-227Z" fill="rgb(254,213,221)" stroke="rgb(254,213,221)" stroke-width="1.51"/><path d="M-43,1117L130,1128L158,985Z" fill="rgb(252,193,205)" stroke="rgb(252,193,205)" stroke-width="1.51"/><path d="M158,985L130,1128L311,1160Z" fill="rgb(251,188,202)" stroke="rgb(251,188,202)" stroke-width="1.51"/><path d="M-55,-256L-99,-37L91,-76Z" fill="rgb(255,251,251)" stroke="rgb(255,251,251)" stroke-width="1.51"/><path d="M91,-76L-99,-37L100,175Z" fill="rgb(255,249,249)" stroke="rgb(255,249,249)" stroke-width="1.51"/><path d="M-249,784L-62,965L-58,726Z" fill="rgb(253,200,211)" stroke="rgb(253,200,211)" stroke-width="1.51"/><path d="M-58,726L-62,965L128,772Z" fill="rgb(253,200,211)" stroke="rgb(253,200,211)" stroke-width="1.51"/><path d="M1351,182L1335,-68L1134,-25Z" fill="rgb(253,200,211)" stroke="rgb(253,200,211)" stroke-width="1.51"/><path d="M341,-239L115,-290L91,-76Z" fill="rgb(255,244,245)" stroke="rgb(255,244,245)" stroke-width="1.51"/><path d="M508,-257L115,-290L341,-239Z" fill="rgb(255,239,241)" stroke="rgb(255,239,241)" stroke-width="1.51"/><path d="M1288,-263L115,-290L508,-257Z" fill="rgb(255,227,232)" stroke="rgb(255,227,232)" stroke-width="1.51"/><path d="M938,1156L1092,1170L909,977Z" fill="rgb(247,158,179)" stroke="rgb(247,158,179)" stroke-width="1.51"/><path d="M1154,940L1336,975L1352,712Z" fill="rgb(245,147,171)" stroke="rgb(245,147,171)" stroke-width="1.51"/><path d="M311,1160L1092,1170L938,1156Z" fill="rgb(248,165,185)" stroke="rgb(248,165,185)" stroke-width="1.51"/><path d="M1351,182L1554,-12L1335,-68Z" fill="rgb(252,195,207)" stroke="rgb(252,195,207)" stroke-width="1.51"/><path d="M1501,581L1504,322L1338,550Z" fill="rgb(248,165,185)" stroke="rgb(248,165,185)" stroke-width="1.51"/><path d="M1352,712L1501,581L1338,550Z" fill="rgb(247,159,180)" stroke="rgb(247,159,180)" stroke-width="1.51"/><path d="M1505,715L1501,581L1352,712Z" fill="rgb(246,154,176)" stroke="rgb(246,154,176)" stroke-width="1.51"/><path d="M1284,1171L1336,975L1154,940Z" fill="rgb(245,147,171)" stroke="rgb(245,147,171)" stroke-width="1.51"/><path d="M-98,554L-277,565L-58,726Z" fill="rgb(254,213,221)" stroke="rgb(254,213,221)" stroke-width="1.51"/><path d="M-300,361L-98,554L-84,328Z" fill="rgb(255,226,231)" stroke="rgb(255,226,231)" stroke-width="1.51"/><path d="M-300,361L-84,328L-268,160Z" fill="rgb(255,234,237)" stroke="rgb(255,234,237)" stroke-width="1.51"/><path d="M-268,160L-84,328L-112,177Z" fill="rgb(255,238,240)" stroke="rgb(255,238,240)" stroke-width="1.51"/><path d="M-249,-33L-268,160L-112,177Z" fill="rgb(255,245,246)" stroke="rgb(255,245,246)" stroke-width="1.51"/><path d="M-249,-33L-112,177L-99,-37Z" fill="rgb(255,249,249)" stroke="rgb(255,249,249)" stroke-width="1.51"/><path d="M1554,-12L1515,175L1745,185Z" fill="rgb(251,189,202)" stroke="rgb(251,189,202)" stroke-width="1.51"/><path d="M1336,975L1505,715L1352,712Z" fill="rgb(245,147,171)" stroke="rgb(245,147,171)" stroke-width="1.51"/><path d="M-277,565L-249,784L-58,726Z" fill="rgb(253,209,217)" stroke="rgb(253,209,217)" stroke-width="1.51"/><path d="M1504,322L1515,175L1351,182Z" fill="rgb(250,182,197)" stroke="rgb(250,182,197)" stroke-width="1.51"/><path d="M1515,175L1504,322L1685,327Z" fill="rgb(250,179,195)" stroke="rgb(250,179,195)" stroke-width="1.51"/><path d="M-246,1156L-43,1117L-62,965Z" fill="rgb(252,196,208)" stroke="rgb(252,196,208)" stroke-width="1.51"/><path d="M-62,965L-43,1117L158,985Z" fill="rgb(252,195,207)" stroke="rgb(252,195,207)" stroke-width="1.51"/><path d="M130,1128L-246,1156L311,1160Z" fill="rgb(252,193,206)" stroke="rgb(252,193,206)" stroke-width="1.51"/><path d="M115,-290L-55,-256L91,-76Z" fill="rgb(255,249,249)" stroke="rgb(255,249,249)" stroke-width="1.51"/><path d="M1133,-234L1288,-263L949,-220Z" fill="rgb(254,208,217)" stroke="rgb(254,208,217)" stroke-width="1.51"/><path d="M1335,-68L1288,-263L1133,-234Z" fill="rgb(253,203,213)" stroke="rgb(253,203,213)" stroke-width="1.51"/><path d="M1530,-272L1288,-263L1335,-68Z" fill="rgb(253,198,209)" stroke="rgb(253,198,209)" stroke-width="1.51"/><path d="M-268,160L-251,-247L-300,361Z" fill="rgb(255,245,246)" stroke="rgb(255,245,246)" stroke-width="1.51"/><path d="M-251,-247L-249,-33L-99,-37Z" fill="rgb(255,251,251)" stroke="rgb(255,251,251)" stroke-width="1.51"/><path d="M1336,975L1539,985L1505,715Z" fill="rgb(243,140,166)" stroke="rgb(243,140,166)" stroke-width="1.51"/><path d="M1092,1170L1284,1171L1154,940Z" fill="rgb(245,150,173)" stroke="rgb(245,150,173)" stroke-width="1.51"/><path d="M1515,175L1554,-12L1351,182Z" fill="rgb(251,189,202)" stroke="rgb(251,189,202)" stroke-width="1.51"/><path d="M1685,327L1504,322L1501,581Z" fill="rgb(249,170,188)" stroke="rgb(249,170,188)" stroke-width="1.51"/><path d="M-249,784L-303,953L-62,965Z" fill="rgb(252,196,208)" stroke="rgb(252,196,208)" stroke-width="1.51"/><path d="M-277,565L-303,953L-249,784Z" fill="rgb(253,204,214)" stroke="rgb(253,204,214)" stroke-width="1.51"/><path d="M-300,361L-303,953L-277,565Z" fill="rgb(254,213,221)" stroke="rgb(254,213,221)" stroke-width="1.51"/><path d="M1759,539L1685,327L1501,581Z" fill="rgb(248,166,185)" stroke="rgb(248,166,185)" stroke-width="1.51"/><path d="M1505,715L1759,539L1501,581Z" fill="rgb(247,158,179)" stroke="rgb(247,158,179)" stroke-width="1.51"/><path d="M1500,1121L1539,985L1336,975Z" fill="rgb(243,139,166)" stroke="rgb(243,139,166)" stroke-width="1.51"/><path d="M-55,-256L-251,-247L-99,-37Z" fill="rgb(255,251,251)" stroke="rgb(255,251,251)" stroke-width="1.51"/><path d="M-249,-33L-251,-247L-268,160Z" fill="rgb(255,251,251)" stroke="rgb(255,251,251)" stroke-width="1.51"/><path d="M115,-290L-251,-247L-55,-256Z" fill="rgb(255,251,251)" stroke="rgb(255,251,251)" stroke-width="1.51"/><path d="M1284,1171L1500,1121L1336,975Z" fill="rgb(244,142,168)" stroke="rgb(244,142,168)" stroke-width="1.51"/><path d="M-43,1117L-246,1156L130,1128Z" fill="rgb(252,196,208)" stroke="rgb(252,196,208)" stroke-width="1.51"/><path d="M311,1160L-246,1156L1092,1170Z" fill="rgb(250,181,197)" stroke="rgb(250,181,197)" stroke-width="1.51"/><path d="M-303,953L-246,1156L-62,965Z" fill="rgb(252,196,208)" stroke="rgb(252,196,208)" stroke-width="1.51"/><path d="M1716,787L1759,539L1505,715Z" fill="rgb(246,153,176)" stroke="rgb(246,153,176)" stroke-width="1.51"/><path d="M1716,787L1505,715L1539,985Z" fill="rgb(244,144,169)" stroke="rgb(244,144,169)" stroke-width="1.51"/><path d="M1288,-263L1692,-287L115,-290Z" fill="rgb(254,211,220)" stroke="rgb(254,211,220)" stroke-width="1.51"/><path d="M1554,-12L1530,-272L1335,-68Z" fill="rgb(252,196,208)" stroke="rgb(252,196,208)" stroke-width="1.51"/><path d="M1692,-287L1530,-272L1554,-12Z" fill="rgb(252,196,208)" stroke="rgb(252,196,208)" stroke-width="1.51"/><path d="M1745,185L1515,175L1685,327Z" fill="rgb(250,182,197)" stroke="rgb(250,182,197)" stroke-width="1.51"/><path d="M1759,539L1745,185L1685,327Z" fill="rgb(249,174,191)" stroke="rgb(249,174,191)" stroke-width="1.51"/><path d="M1750,951L1716,787L1539,985Z" fill="rgb(243,139,166)" stroke="rgb(243,139,166)" stroke-width="1.51"/><path d="M1745,185L1726,-12L1554,-12Z" fill="rgb(252,192,205)" stroke="rgb(252,192,205)" stroke-width="1.51"/><path d="M1716,787L1750,951L1759,539Z" fill="rgb(245,148,172)" stroke="rgb(245,148,172)" stroke-width="1.51"/><path d="M1733,1148L1750,951L1539,985Z" fill="rgb(243,139,166)" stroke="rgb(243,139,166)" stroke-width="1.51"/><path d="M1530,-272L1692,-287L1288,-263Z" fill="rgb(252,196,208)" stroke="rgb(252,196,208)" stroke-width="1.51"/><path d="M1726,-12L1692,-287L1554,-12Z" fill="rgb(252,196,208)" stroke="rgb(252,196,208)" stroke-width="1.51"/><path d="M1284,1171L1733,1148L1500,1121Z" fill="rgb(243,139,166)" stroke="rgb(243,139,166)" stroke-width="1.51"/><path d="M1500,1121L1733,1148L1539,985Z" fill="rgb(243,139,166)" stroke="rgb(243,139,166)" stroke-width="1.51"/></svg>