<svg xmlns="http://www.w3.org/2000/svg" width="1440" height="900"><path d="M705,541L566,649L714,671Z" fill="rgb(251,188,201)" stroke="rgb(251,188,201)" stroke-width="1.51"/><path d="M705,541L548,521L566,649Z" fill="rgb(252,193,205)" stroke="rgb(252,193,205)" stroke-width="1.51"/><path d="M705,541L596,398L548,521Z" fill="rgb(253,198,209)" stroke="rgb(253,198,209)" stroke-width="1.51"/><path d="M554,853L729,828L714,671Z" fill="rgb(250,177,194)" stroke="rgb(250,177,194)" stroke-width="1.51"/><path d="M714,671L881,536L705,541Z" fill="rgb(251,186,200)" stroke="rgb(251,186,200)" stroke-width="1.51"/><path d="M729,828L864,695L714,671Z" fill="rgb(250,177,193)" stroke="rgb(250,177,193)" stroke-width="1.51"/><path d="M705,541L708,347L596,398Z" fill="rgb(253,199,210)" stroke="rgb(253,199,210)" stroke-width="1.51"/><path d="M548,521L436,511L566,649Z" fill="rgb(253,197,208)" stroke="rgb(253,197,208)" stroke-width="1.51"/><path d="M566,649L554,853L714,671Z" fill="rgb(250,183,198)" stroke="rgb(250,183,198)" stroke-width="1.51"/><path d="M441,401L436,511L548,521Z" fill="rgb(253,204,213)" stroke="rgb(253,204,213)" stroke-width="1.51"/><path d="M864,695L881,536L714,671Z" fill="rgb(250,181,196)" stroke="rgb(250,181,196)" stroke-width="1.51"/><path d="M408,797L554,853L566,649Z" fill="rgb(251,184,199)" stroke="rgb(251,184,199)" stroke-width="1.51"/><path d="M436,511L393,701L566,649Z" fill="rgb(252,195,207)" stroke="rgb(252,195,207)" stroke-width="1.51"/><path d="M881,536L708,347L705,541Z" fill="rgb(252,193,205)" stroke="rgb(252,193,205)" stroke-width="1.51"/><path d="M596,398L441,401L548,521Z" fill="rgb(253,204,214)" stroke="rgb(253,204,214)" stroke-width="1.51"/><path d="M268,534L277,680L393,701Z" fill="rgb(253,200,211)" stroke="rgb(253,200,211)" stroke-width="1.51"/><path d="M589,242L441,401L596,398Z" fill="rgb(253,208,217)" stroke="rgb(253,208,217)" stroke-width="1.51"/><path d="M393,701L408,797L566,649Z" fill="rgb(252,190,203)" stroke="rgb(252,190,203)" stroke-width="1.51"/><path d="M729,828L890,811L864,695Z" fill="rgb(249,171,189)" stroke="rgb(249,171,189)" stroke-width="1.51"/><path d="M1023,689L1009,535L881,536Z" fill="rgb(250,178,194)" stroke="rgb(250,178,194)" stroke-width="1.51"/><path d="M897,984L890,811L729,828Z" fill="rgb(248,165,184)" stroke="rgb(248,165,184)" stroke-width="1.51"/><path d="M881,536L894,356L708,347Z" fill="rgb(252,194,206)" stroke="rgb(252,194,206)" stroke-width="1.51"/><path d="M1009,535L894,356L881,536Z" fill="rgb(251,187,200)" stroke="rgb(251,187,200)" stroke-width="1.51"/><path d="M1023,689L881,536L864,695Z" fill="rgb(250,176,193)" stroke="rgb(250,176,193)" stroke-width="1.51"/><path d="M708,347L589,242L596,398Z" fill="rgb(254,207,216)" stroke="rgb(254,207,216)" stroke-width="1.51"/><path d="M720,201L589,242L708,347Z" fill="rgb(254,209,217)" stroke="rgb(254,209,217)" stroke-width="1.51"/><path d="M393,701L277,680L408,797Z" fill="rgb(252,192,205)" stroke="rgb(252,192,205)" stroke-width="1.51"/><path d="M268,534L393,701L436,511Z" fill="rgb(253,201,212)" stroke="rgb(253,201,212)" stroke-width="1.51"/><path d="M554,853L728,1001L729,828Z" fill="rgb(249,170,189)" stroke="rgb(249,170,189)" stroke-width="1.51"/><path d="M423,1001L541,975L554,853Z" fill="rgb(250,176,193)" stroke="rgb(250,176,193)" stroke-width="1.51"/><path d="M423,1001L554,853L408,797Z" fill="rgb(250,179,195)" stroke="rgb(250,179,195)" stroke-width="1.51"/><path d="M890,811L1023,689L864,695Z" fill="rgb(249,171,188)" stroke="rgb(249,171,188)" stroke-width="1.51"/><path d="M441,401L268,534L436,511Z" fill="rgb(253,207,216)" stroke="rgb(253,207,216)" stroke-width="1.51"/><path d="M260,356L268,534L441,401Z" fill="rgb(254,212,220)" stroke="rgb(254,212,220)" stroke-width="1.51"/><path d="M541,975L728,1001L554,853Z" fill="rgb(249,172,190)" stroke="rgb(249,172,190)" stroke-width="1.51"/><path d="M890,811L1011,818L1023,689Z" fill="rgb(248,166,185)" stroke="rgb(248,166,185)" stroke-width="1.51"/><path d="M855,218L720,201L708,347Z" fill="rgb(253,207,215)" stroke="rgb(253,207,215)" stroke-width="1.51"/><path d="M897,984L1011,818L890,811Z" fill="rgb(247,161,182)" stroke="rgb(247,161,182)" stroke-width="1.51"/><path d="M589,242L439,244L441,401Z" fill="rgb(254,214,221)" stroke="rgb(254,214,221)" stroke-width="1.51"/><path d="M422,93L439,244L589,242Z" fill="rgb(255,221,227)" stroke="rgb(255,221,227)" stroke-width="1.51"/><path d="M894,356L855,218L708,347Z" fill="rgb(253,201,211)" stroke="rgb(253,201,211)" stroke-width="1.51"/><path d="M995,198L855,218L894,356Z" fill="rgb(252,200,211)" stroke="rgb(252,200,211)" stroke-width="1.51"/><path d="M1173,537L1010,348L1009,535Z" fill="rgb(251,181,196)" stroke="rgb(251,181,196)" stroke-width="1.51"/><path d="M1009,535L1010,348L894,356Z" fill="rgb(252,188,202)" stroke="rgb(252,188,202)" stroke-width="1.51"/><path d="M728,1001L897,984L729,828Z" fill="rgb(248,165,185)" stroke="rgb(248,165,185)" stroke-width="1.51"/><path d="M274,950L423,1001L408,797Z" fill="rgb(250,182,197)" stroke="rgb(250,182,197)" stroke-width="1.51"/><path d="M585,1140L725,1095L728,1001Z" fill="rgb(249,169,188)" stroke="rgb(249,169,188)" stroke-width="1.51"/><path d="M93,696L248,842L277,680Z" fill="rgb(252,198,209)" stroke="rgb(252,198,209)" stroke-width="1.51"/><path d="M277,680L248,842L408,797Z" fill="rgb(252,191,205)" stroke="rgb(252,191,205)" stroke-width="1.51"/><path d="M439,244L260,356L441,401Z" fill="rgb(254,216,223)" stroke="rgb(254,216,223)" stroke-width="1.51"/><path d="M268,534L91,545L277,680Z" fill="rgb(253,207,216)" stroke="rgb(253,207,216)" stroke-width="1.51"/><path d="M728,1001L886,1113L897,984Z" fill="rgb(248,163,183)" stroke="rgb(248,163,183)" stroke-width="1.51"/><path d="M585,1140L728,1001L541,975Z" fill="rgb(249,172,190)" stroke="rgb(249,172,190)" stroke-width="1.51"/><path d="M1023,689L1150,646L1009,535Z" fill="rgb(249,172,189)" stroke="rgb(249,172,189)" stroke-width="1.51"/><path d="M1187,836L1150,646L1023,689Z" fill="rgb(248,164,183)" stroke="rgb(248,164,183)" stroke-width="1.51"/><path d="M1187,836L1023,689L1011,818Z" fill="rgb(247,161,182)" stroke="rgb(247,161,182)" stroke-width="1.51"/><path d="M248,842L274,950L408,797Z" fill="rgb(251,186,200)" stroke="rgb(251,186,200)" stroke-width="1.51"/><path d="M897,984L1035,961L1011,818Z" fill="rgb(247,157,179)" stroke="rgb(247,157,179)" stroke-width="1.51"/><path d="M1012,1121L1035,961L897,984Z" fill="rgb(247,157,179)" stroke="rgb(247,157,179)" stroke-width="1.51"/><path d="M1150,646L1173,537L1009,535Z" fill="rgb(249,173,190)" stroke="rgb(249,173,190)" stroke-width="1.51"/><path d="M430,1143L541,975L423,1001Z" fill="rgb(250,178,194)" stroke="rgb(250,178,194)" stroke-width="1.51"/><path d="M430,1143L585,1140L541,975Z" fill="rgb(250,175,193)" stroke="rgb(250,175,193)" stroke-width="1.51"/><path d="M1010,348L995,198L894,356Z" fill="rgb(252,196,207)" stroke="rgb(252,196,207)" stroke-width="1.51"/><path d="M855,218L739,69L720,201Z" fill="rgb(254,212,220)" stroke="rgb(254,212,220)" stroke-width="1.51"/><path d="M1151,217L995,198L1010,348Z" fill="rgb(252,195,207)" stroke="rgb(252,195,207)" stroke-width="1.51"/><path d="M720,201L572,55L589,242Z" fill="rgb(254,217,224)" stroke="rgb(254,217,224)" stroke-width="1.51"/><path d="M897,69L739,69L855,218Z" fill="rgb(254,212,220)" stroke="rgb(254,212,220)" stroke-width="1.51"/><path d="M439,244L264,214L260,356Z" fill="rgb(255,222,228)" stroke="rgb(255,222,228)" stroke-width="1.51"/><path d="M422,93L264,214L439,244Z" fill="rgb(255,225,230)" stroke="rgb(255,225,230)" stroke-width="1.51"/><path d="M725,1095L886,1113L728,1001Z" fill="rgb(248,165,185)" stroke="rgb(248,165,185)" stroke-width="1.51"/><path d="M585,1140L886,1113L725,1095Z" fill="rgb(248,167,186)" stroke="rgb(248,167,186)" stroke-width="1.51"/><path d="M138,370L268,534L260,356Z" fill="rgb(254,217,223)" stroke="rgb(254,217,223)" stroke-width="1.51"/><path d="M138,370L91,545L268,534Z" fill="rgb(254,215,223)" stroke="rgb(254,215,223)" stroke-width="1.51"/><path d="M248,842L141,999L274,950Z" fill="rgb(251,187,201)" stroke="rgb(251,187,201)" stroke-width="1.51"/><path d="M739,69L572,55L720,201Z" fill="rgb(254,219,225)" stroke="rgb(254,219,225)" stroke-width="1.51"/><path d="M91,545L93,696L277,680Z" fill="rgb(253,206,216)" stroke="rgb(253,206,216)" stroke-width="1.51"/><path d="M132,253L138,370L260,356Z" fill="rgb(255,224,229)" stroke="rgb(255,224,229)" stroke-width="1.51"/><path d="M572,55L422,93L589,242Z" fill="rgb(255,223,228)" stroke="rgb(255,223,228)" stroke-width="1.51"/><path d="M282,1115L430,1143L423,1001Z" fill="rgb(250,181,197)" stroke="rgb(250,181,197)" stroke-width="1.51"/><path d="M93,696L104,821L248,842Z" fill="rgb(252,197,208)" stroke="rgb(252,197,208)" stroke-width="1.51"/><path d="M274,950L282,1115L423,1001Z" fill="rgb(251,183,198)" stroke="rgb(251,183,198)" stroke-width="1.51"/><path d="M1150,646L1310,540L1173,537Z" fill="rgb(249,169,187)" stroke="rgb(249,169,187)" stroke-width="1.51"/><path d="M1035,961L1187,836L1011,818Z" fill="rgb(246,156,178)" stroke="rgb(246,156,178)" stroke-width="1.51"/><path d="M1181,951L1187,836L1035,961Z" fill="rgb(246,151,174)" stroke="rgb(246,151,174)" stroke-width="1.51"/><path d="M734,-78L562,-49L572,55Z" fill="rgb(255,227,232)" stroke="rgb(255,227,232)" stroke-width="1.51"/><path d="M995,198L897,69L855,218Z" fill="rgb(253,206,215)" stroke="rgb(253,206,215)" stroke-width="1.51"/><path d="M1173,537L1191,351L1010,348Z" fill="rgb(251,182,197)" stroke="rgb(251,182,197)" stroke-width="1.51"/><path d="M995,198L1016,48L897,69Z" fill="rgb(254,207,217)" stroke="rgb(254,207,217)" stroke-width="1.51"/><path d="M1291,385L1191,351L1173,537Z" fill="rgb(250,178,194)" stroke="rgb(250,178,194)" stroke-width="1.51"/><path d="M141,999L282,1115L274,950Z" fill="rgb(251,187,201)" stroke="rgb(251,187,201)" stroke-width="1.51"/><path d="M264,214L132,253L260,356Z" fill="rgb(255,226,231)" stroke="rgb(255,226,231)" stroke-width="1.51"/><path d="M-46,501L-26,681L91,545Z" fill="rgb(254,216,223)" stroke="rgb(254,216,223)" stroke-width="1.51"/><path d="M147,98L132,253L264,214Z" fill="rgb(255,233,236)" stroke="rgb(255,233,236)" stroke-width="1.51"/><path d="M886,1113L1012,1121L897,984Z" fill="rgb(247,159,180)" stroke="rgb(247,159,180)" stroke-width="1.51"/><path d="M585,1140L1012,1121L886,1113Z" fill="rgb(248,163,183)" stroke="rgb(248,163,183)" stroke-width="1.51"/><path d="M1144,1101L1181,951L1035,961Z" fill="rgb(246,152,175)" stroke="rgb(246,152,175)" stroke-width="1.51"/><path d="M407,-67L288,85L422,93Z" fill="rgb(255,234,237)" stroke="rgb(255,234,237)" stroke-width="1.51"/><path d="M422,93L288,85L264,214Z" fill="rgb(255,231,234)" stroke="rgb(255,231,234)" stroke-width="1.51"/><path d="M104,821L141,999L248,842Z" fill="rgb(251,190,203)" stroke="rgb(251,190,203)" stroke-width="1.51"/><path d="M1191,351L1151,217L1010,348Z" fill="rgb(252,190,202)" stroke="rgb(252,190,202)" stroke-width="1.51"/><path d="M1187,836L1303,697L1150,646Z" fill="rgb(247,159,180)" stroke="rgb(247,159,180)" stroke-width="1.51"/><path d="M1191,351L1312,246L1151,217Z" fill="rgb(251,188,202)" stroke="rgb(251,188,202)" stroke-width="1.51"/><path d="M1332,849L1303,697L1187,836Z" fill="rgb(246,153,175)" stroke="rgb(246,153,175)" stroke-width="1.51"/><path d="M572,55L562,-49L422,93Z" fill="rgb(255,229,234)" stroke="rgb(255,229,234)" stroke-width="1.51"/><path d="M734,-78L572,55L739,69Z" fill="rgb(255,224,229)" stroke="rgb(255,224,229)" stroke-width="1.51"/><path d="M1303,697L1310,540L1150,646Z" fill="rgb(248,164,184)" stroke="rgb(248,164,184)" stroke-width="1.51"/><path d="M1151,217L1016,48L995,198Z" fill="rgb(253,201,212)" stroke="rgb(253,201,212)" stroke-width="1.51"/><path d="M857,-58L734,-78L739,69Z" fill="rgb(255,221,227)" stroke="rgb(255,221,227)" stroke-width="1.51"/><path d="M104,821L-15,847L141,999Z" fill="rgb(252,193,206)" stroke="rgb(252,193,206)" stroke-width="1.51"/><path d="M93,696L-15,847L104,821Z" fill="rgb(253,200,211)" stroke="rgb(253,200,211)" stroke-width="1.51"/><path d="M91,545L-26,681L93,696Z" fill="rgb(254,210,219)" stroke="rgb(254,210,219)" stroke-width="1.51"/><path d="M-46,501L91,545L138,370Z" fill="rgb(254,220,226)" stroke="rgb(254,220,226)" stroke-width="1.51"/><path d="M1310,540L1291,385L1173,537Z" fill="rgb(249,173,190)" stroke="rgb(249,173,190)" stroke-width="1.51"/><path d="M1151,217L1161,55L1016,48Z" fill="rgb(253,202,213)" stroke="rgb(253,202,213)" stroke-width="1.51"/><path d="M857,-58L739,69L897,69Z" fill="rgb(254,218,224)" stroke="rgb(254,218,224)" stroke-width="1.51"/><path d="M1181,951L1332,849L1187,836Z" fill="rgb(245,149,173)" stroke="rgb(245,149,173)" stroke-width="1.51"/><path d="M1012,1121L1144,1101L1035,961Z" fill="rgb(246,154,177)" stroke="rgb(246,154,177)" stroke-width="1.51"/><path d="M1016,48L857,-58L897,69Z" fill="rgb(254,215,222)" stroke="rgb(254,215,222)" stroke-width="1.51"/><path d="M-48,349L-46,501L138,370Z" fill="rgb(255,226,231)" stroke="rgb(255,226,231)" stroke-width="1.51"/><path d="M-26,681L-15,847L93,696Z" fill="rgb(253,205,214)" stroke="rgb(253,205,214)" stroke-width="1.51"/><path d="M-43,1003L-15,847L-164,946Z" fill="rgb(252,196,208)" stroke="rgb(252,196,208)" stroke-width="1.51"/><path d="M132,253L-48,349L138,370Z" fill="rgb(255,228,233)" stroke="rgb(255,228,233)" stroke-width="1.51"/><path d="M288,85L147,98L264,214Z" fill="rgb(255,234,237)" stroke="rgb(255,234,237)" stroke-width="1.51"/><path d="M287,-76L147,98L288,85Z" fill="rgb(255,240,242)" stroke="rgb(255,240,242)" stroke-width="1.51"/><path d="M562,-49L407,-67L422,93Z" fill="rgb(255,233,237)" stroke="rgb(255,233,237)" stroke-width="1.51"/><path d="M432,-221L407,-67L562,-49Z" fill="rgb(255,233,237)" stroke="rgb(255,233,237)" stroke-width="1.51"/><path d="M1303,697L1446,531L1310,540Z" fill="rgb(247,162,183)" stroke="rgb(247,162,183)" stroke-width="1.51"/><path d="M1319,995L1332,849L1181,951Z" fill="rgb(245,146,170)" stroke="rgb(245,146,170)" stroke-width="1.51"/><path d="M-53,219L-48,349L132,253Z" fill="rgb(255,234,237)" stroke="rgb(255,234,237)" stroke-width="1.51"/><path d="M141,999L109,1131L282,1115Z" fill="rgb(251,189,202)" stroke="rgb(251,189,202)" stroke-width="1.51"/><path d="M282,1115L109,1131L430,1143Z" fill="rgb(251,185,199)" stroke="rgb(251,185,199)" stroke-width="1.51"/><path d="M-22,1097L109,1131L141,999Z" fill="rgb(252,193,205)" stroke="rgb(252,193,205)" stroke-width="1.51"/><path d="M1016,48L1040,-50L857,-58Z" fill="rgb(254,214,222)" stroke="rgb(254,214,222)" stroke-width="1.51"/><path d="M1333,72L1161,55L1151,217Z" fill="rgb(253,197,209)" stroke="rgb(253,197,209)" stroke-width="1.51"/><path d="M1446,531L1291,385L1310,540Z" fill="rgb(248,169,187)" stroke="rgb(248,169,187)" stroke-width="1.51"/><path d="M1453,253L1312,246L1291,385Z" fill="rgb(250,181,196)" stroke="rgb(250,181,196)" stroke-width="1.51"/><path d="M1291,385L1312,246L1191,351Z" fill="rgb(251,182,197)" stroke="rgb(251,182,197)" stroke-width="1.51"/><path d="M1161,55L1040,-50L1016,48Z" fill="rgb(253,209,218)" stroke="rgb(253,209,218)" stroke-width="1.51"/><path d="M864,-224L714,-216L734,-78Z" fill="rgb(255,222,228)" stroke="rgb(255,222,228)" stroke-width="1.51"/><path d="M1144,1101L1319,995L1181,951Z" fill="rgb(245,148,172)" stroke="rgb(245,148,172)" stroke-width="1.51"/><path d="M293,-211L287,-76L407,-67Z" fill="rgb(255,239,241)" stroke="rgb(255,239,241)" stroke-width="1.51"/><path d="M407,-67L287,-76L288,85Z" fill="rgb(255,239,241)" stroke="rgb(255,239,241)" stroke-width="1.51"/><path d="M-151,525L-26,681L-46,501Z" fill="rgb(254,216,223)" stroke="rgb(254,216,223)" stroke-width="1.51"/><path d="M-181,825L-15,847L-26,681Z" fill="rgb(253,203,213)" stroke="rgb(253,203,213)" stroke-width="1.51"/><path d="M-15,847L-43,1003L141,999Z" fill="rgb(252,195,207)" stroke="rgb(252,195,207)" stroke-width="1.51"/><path d="M-12,86L132,253L147,98Z" fill="rgb(255,239,241)" stroke="rgb(255,239,241)" stroke-width="1.51"/><path d="M-12,86L-53,219L132,253Z" fill="rgb(255,239,241)" stroke="rgb(255,239,241)" stroke-width="1.51"/><path d="M-48,349L-151,525L-46,501Z" fill="rgb(254,223,229)" stroke="rgb(254,223,229)" stroke-width="1.51"/><path d="M1468,699L1446,531L1303,697Z" fill="rgb(247,157,179)" stroke="rgb(247,157,179)" stroke-width="1.51"/><path d="M1468,699L1303,697L1332,849Z" fill="rgb(246,152,175)" stroke="rgb(246,152,175)" stroke-width="1.51"/><path d="M-200,355L-151,525L-48,349Z" fill="rgb(255,226,231)" stroke="rgb(255,226,231)" stroke-width="1.51"/><path d="M1467,841L1468,699L1332,849Z" fill="rgb(245,146,171)" stroke="rgb(245,146,171)" stroke-width="1.51"/><path d="M-43,1003L-22,1097L141,999Z" fill="rgb(252,195,207)" stroke="rgb(252,195,207)" stroke-width="1.51"/><path d="M-178,1116L-22,1097L-43,1003Z" fill="rgb(252,196,208)" stroke="rgb(252,196,208)" stroke-width="1.51"/><path d="M734,-78L714,-216L562,-49Z" fill="rgb(255,226,231)" stroke="rgb(255,226,231)" stroke-width="1.51"/><path d="M864,-224L734,-78L857,-58Z" fill="rgb(254,220,226)" stroke="rgb(254,220,226)" stroke-width="1.51"/><path d="M-151,525L-186,656L-26,681Z" fill="rgb(254,213,221)" stroke="rgb(254,213,221)" stroke-width="1.51"/><path d="M-53,219L-200,355L-48,349Z" fill="rgb(255,232,236)" stroke="rgb(255,232,236)" stroke-width="1.51"/><path d="M104,-52L-12,86L147,98Z" fill="rgb(255,245,246)" stroke="rgb(255,245,246)" stroke-width="1.51"/><path d="M1483,992L1467,841L1332,849Z" fill="rgb(243,140,167)" stroke="rgb(243,140,167)" stroke-width="1.51"/><path d="M1144,1101L1308,1146L1319,995Z" fill="rgb(245,147,171)" stroke="rgb(245,147,171)" stroke-width="1.51"/><path d="M1012,1121L1308,1146L1144,1101Z" fill="rgb(245,151,174)" stroke="rgb(245,151,174)" stroke-width="1.51"/><path d="M585,1140L1308,1146L1012,1121Z" fill="rgb(247,158,179)" stroke="rgb(247,158,179)" stroke-width="1.51"/><path d="M430,1143L1308,1146L585,1140Z" fill="rgb(248,166,185)" stroke="rgb(248,166,185)" stroke-width="1.51"/><path d="M1483,992L1332,849L1319,995Z" fill="rgb(244,142,168)" stroke="rgb(244,142,168)" stroke-width="1.51"/><path d="M714,-216L598,-243L562,-49Z" fill="rgb(255,227,232)" stroke="rgb(255,227,232)" stroke-width="1.51"/><path d="M-186,656L-181,825L-26,681Z" fill="rgb(253,207,216)" stroke="rgb(253,207,216)" stroke-width="1.51"/><path d="M287,-76L104,-52L147,98Z" fill="rgb(255,244,245)" stroke="rgb(255,244,245)" stroke-width="1.51"/><path d="M117,-249L104,-52L287,-76Z" fill="rgb(255,244,246)" stroke="rgb(255,244,246)" stroke-width="1.51"/><path d="M598,-243L432,-221L562,-49Z" fill="rgb(255,231,235)" stroke="rgb(255,231,235)" stroke-width="1.51"/><path d="M714,-216L864,-224L598,-243Z" fill="rgb(254,223,229)" stroke="rgb(254,223,229)" stroke-width="1.51"/><path d="M1040,-50L864,-224L857,-58Z" fill="rgb(254,216,223)" stroke="rgb(254,216,223)" stroke-width="1.51"/><path d="M1030,-254L864,-224L1040,-50Z" fill="rgb(254,214,221)" stroke="rgb(254,214,221)" stroke-width="1.51"/><path d="M1161,55L1181,-101L1040,-50Z" fill="rgb(254,208,217)" stroke="rgb(254,208,217)" stroke-width="1.51"/><path d="M1312,246L1333,72L1151,217Z" fill="rgb(252,191,205)" stroke="rgb(252,191,205)" stroke-width="1.51"/><path d="M1466,100L1333,72L1312,246Z" fill="rgb(251,190,203)" stroke="rgb(251,190,203)" stroke-width="1.51"/><path d="M-181,825L-164,946L-15,847Z" fill="rgb(253,198,209)" stroke="rgb(253,198,209)" stroke-width="1.51"/><path d="M1496,349L1453,253L1291,385Z" fill="rgb(250,176,193)" stroke="rgb(250,176,193)" stroke-width="1.51"/><path d="M1496,349L1291,385L1446,531Z" fill="rgb(249,170,189)" stroke="rgb(249,170,189)" stroke-width="1.51"/><path d="M-151,525L-200,355L-186,656Z" fill="rgb(254,220,226)" stroke="rgb(254,220,226)" stroke-width="1.51"/><path d="M-186,656L-178,1116L-181,825Z" fill="rgb(253,198,209)" stroke="rgb(253,198,209)" stroke-width="1.51"/><path d="M-200,209L-200,355L-53,219Z" fill="rgb(255,235,238)" stroke="rgb(255,235,238)" stroke-width="1.51"/><path d="M1597,682L1446,531L1468,699Z" fill="rgb(246,156,178)" stroke="rgb(246,156,178)" stroke-width="1.51"/><path d="M1635,504L1496,349L1446,531Z" fill="rgb(248,167,186)" stroke="rgb(248,167,186)" stroke-width="1.51"/><path d="M1333,72L1181,-101L1161,55Z" fill="rgb(253,203,213)" stroke="rgb(253,203,213)" stroke-width="1.51"/><path d="M117,-249L293,-211L432,-221Z" fill="rgb(255,240,242)" stroke="rgb(255,240,242)" stroke-width="1.51"/><path d="M432,-221L293,-211L407,-67Z" fill="rgb(255,236,239)" stroke="rgb(255,236,239)" stroke-width="1.51"/><path d="M1602,847L1597,682L1468,699Z" fill="rgb(245,149,173)" stroke="rgb(245,149,173)" stroke-width="1.51"/><path d="M1451,1129L1483,992L1319,995Z" fill="rgb(243,140,166)" stroke="rgb(243,140,166)" stroke-width="1.51"/><path d="M-175,67L-53,219L-12,86Z" fill="rgb(255,243,245)" stroke="rgb(255,243,245)" stroke-width="1.51"/><path d="M-175,67L-200,209L-53,219Z" fill="rgb(255,241,243)" stroke="rgb(255,241,243)" stroke-width="1.51"/><path d="M104,-52L-7,-65L-12,86Z" fill="rgb(255,250,250)" stroke="rgb(255,250,250)" stroke-width="1.51"/><path d="M-36,-202L-7,-65L104,-52Z" fill="rgb(255,250,250)" stroke="rgb(255,250,250)" stroke-width="1.51"/><path d="M864,-224L1030,-254L598,-243Z" fill="rgb(254,219,226)" stroke="rgb(254,219,226)" stroke-width="1.51"/><path d="M1154,-202L1030,-254L1040,-50Z" fill="rgb(253,210,219)" stroke="rgb(253,210,219)" stroke-width="1.51"/><path d="M1602,847L1468,699L1467,841Z" fill="rgb(245,146,170)" stroke="rgb(245,146,170)" stroke-width="1.51"/><path d="M1308,1146L1451,1129L1319,995Z" fill="rgb(244,143,168)" stroke="rgb(244,143,168)" stroke-width="1.51"/><path d="M1483,992L1602,847L1467,841Z" fill="rgb(243,140,166)" stroke="rgb(243,140,166)" stroke-width="1.51"/><path d="M1181,-101L1154,-202L1040,-50Z" fill="rgb(254,208,217)" stroke="rgb(254,208,217)" stroke-width="1.51"/><path d="M1294,-255L1154,-202L1181,-101Z" fill="rgb(253,204,214)" stroke="rgb(253,204,214)" stroke-width="1.51"/><path d="M1331,-99L1181,-101L1333,72Z" fill="rgb(253,202,212)" stroke="rgb(253,202,212)" stroke-width="1.51"/><path d="M1627,205L1453,253L1496,349Z" fill="rgb(250,179,195)" stroke="rgb(250,179,195)" stroke-width="1.51"/><path d="M1627,205L1466,100L1453,253Z" fill="rgb(251,184,199)" stroke="rgb(251,184,199)" stroke-width="1.51"/><path d="M1453,253L1466,100L1312,246Z" fill="rgb(251,185,199)" stroke="rgb(251,185,199)" stroke-width="1.51"/><path d="M-22,1097L-178,1116L109,1131Z" fill="rgb(252,196,208)" stroke="rgb(252,196,208)" stroke-width="1.51"/><path d="M-164,946L-178,1116L-43,1003Z" fill="rgb(252,196,208)" stroke="rgb(252,196,208)" stroke-width="1.51"/><path d="M-181,825L-178,1116L-164,946Z" fill="rgb(252,196,208)" stroke="rgb(252,196,208)" stroke-width="1.51"/><path d="M-200,355L-178,1116L-186,656Z" fill="rgb(254,207,216)" stroke="rgb(254,207,216)" stroke-width="1.51"/><path d="M1615,974L1602,847L1483,992Z" fill="rgb(243,139,166)" stroke="rgb(243,139,166)" stroke-width="1.51"/><path d="M1483,-66L1331,-99L1333,72Z" fill="rgb(253,198,209)" stroke="rgb(253,198,209)" stroke-width="1.51"/><path d="M-7,-65L-175,67L-12,86Z" fill="rgb(255,249,249)" stroke="rgb(255,249,249)" stroke-width="1.51"/><path d="M1602,847L1635,504L1597,682Z" fill="rgb(246,153,176)" stroke="rgb(246,153,176)" stroke-width="1.51"/><path d="M1597,682L1635,504L1446,531Z" fill="rgb(247,160,181)" stroke="rgb(247,160,181)" stroke-width="1.51"/><path d="M-7,-65L-187,-92L-175,67Z" fill="rgb(255,251,251)" stroke="rgb(255,251,251)" stroke-width="1.51"/><path d="M293,-211L117,-249L287,-76Z" fill="rgb(255,242,244)" stroke="rgb(255,242,244)" stroke-width="1.51"/><path d="M598,-243L117,-249L432,-221Z" fill="rgb(255,236,239)" stroke="rgb(255,236,239)" stroke-width="1.51"/><path d="M1030,-254L117,-249L598,-243Z" fill="rgb(255,229,233)" stroke="rgb(255,229,233)" stroke-width="1.51"/><path d="M1635,504L1639,355L1496,349Z" fill="rgb(249,171,189)" stroke="rgb(249,171,189)" stroke-width="1.51"/><path d="M1466,100L1483,-66L1333,72Z" fill="rgb(252,194,207)" stroke="rgb(252,194,207)" stroke-width="1.51"/><path d="M1602,847L1615,974L1635,504Z" fill="rgb(245,147,171)" stroke="rgb(245,147,171)" stroke-width="1.51"/><path d="M1642,1138L1615,974L1483,992Z" fill="rgb(243,139,166)" stroke="rgb(243,139,166)" stroke-width="1.51"/><path d="M1639,355L1627,205L1496,349Z" fill="rgb(250,177,194)" stroke="rgb(250,177,194)" stroke-width="1.51"/><path d="M117,-249L-36,-202L104,-52Z" fill="rgb(255,248,249)" stroke="rgb(255,248,249)" stroke-width="1.51"/><path d="M1638,83L1483,-66L1466,100Z" fill="rgb(252,193,206)" stroke="rgb(252,193,206)" stroke-width="1.51"/><path d="M1331,-99L1294,-255L1181,-101Z" fill="rgb(253,202,213)" stroke="rgb(253,202,213)" stroke-width="1.51"/><path d="M1154,-202L1294,-255L1030,-254Z" fill="rgb(253,206,216)" stroke="rgb(253,206,216)" stroke-width="1.51"/><path d="M1450,-199L1294,-255L1331,-99Z" fill="rgb(252,199,210)" stroke="rgb(252,199,210)" stroke-width="1.51"/><path d="M-36,-202L-187,-92L-7,-65Z" fill="rgb(255,251,251)" stroke="rgb(255,251,251)" stroke-width="1.51"/><path d="M-175,67L-187,-92L-200,209Z" fill="rgb(255,247,248)" stroke="rgb(255,247,248)" stroke-width="1.51"/><path d="M1483,-66L1450,-199L1331,-99Z" fill="rgb(252,197,208)" stroke="rgb(252,197,208)" stroke-width="1.51"/><path d="M1627,205L1638,83L1466,100Z" fill="rgb(251,188,201)" stroke="rgb(251,188,201)" stroke-width="1.51"/><path d="M1639,355L1638,83L1627,205Z" fill="rgb(251,183,197)" stroke="rgb(251,183,197)" stroke-width="1.51"/><path d="M1451,1129L1642,1138L1483,992Z" fill="rgb(243,139,166)" stroke="rgb(243,139,166)" stroke-width="1.51"/><path d="M1615,974L1642,1138L1635,504Z" fill="rgb(244,141,167)" stroke="rgb(244,141,167)" stroke-width="1.51"/><path d="M1635,504L1642,1138L1639,355Z" fill="rgb(246,154,176)" stroke="rgb(246,154,176)" stroke-width="1.51"/><path d="M1639,355L1642,1138L1638,83Z" fill="rgb(248,163,183)" stroke="rgb(248,163,183)" stroke-width="1.51"/><path d="M1308,1146L1642,1138L1451,1129Z" fill="rgb(243,139,166)" stroke="rgb(243,139,166)" stroke-width="1.51"/><path d="M1611,-70L1450,-199L1483,-66Z" fill="rgb(252,196,208)" stroke="rgb(252,196,208)" stroke-width="1.51"/><path d="M-36,-202L-153,-245L-187,-92Z" fill="rgb(255,251,251)" stroke="rgb(255,251,251)" stroke-width="1.51"/><path d="M117,-249L-153,-245L-36,-202Z" fill="rgb(255,251,251)" stroke="rgb(255,251,251)" stroke-width="1.51"/><path d="M1638,83L1611,-70L1483,-66Z" fill="rgb(252,196,208)" stroke="rgb(252,196,208)" stroke-width="1.51"/><path d="M1638,83L1631,-214L1611,-70Z" fill="rgb(252,196,208)" stroke="rgb(252,196,208)" stroke-width="1.51"/><path d="M1611,-70L1631,-214L1450,-199Z" fill="rgb(252,196,208)" stroke="rgb(252,196,208)" stroke-width="1.51"/><path d="M1450,-199L1631,-214L1294,-255Z" fill="rgb(252,196,208)" stroke="rgb(252,196,208)" stroke-width="1.51"/></svg>