<?xml version="1.0" standalone="no"?>
<svg xmlns:xlink="http://www.w3.org/1999/xlink" id="wave" style="transform:rotate(0deg); transition: 0.3s" viewBox="0 0 1440 490" version="1.1" xmlns="http://www.w3.org/2000/svg"><defs><linearGradient id="sw-gradient-0" x1="0" x2="0" y1="1" y2="0"><stop stop-color="rgba(243, 106, 62, 1)" offset="0%"/><stop stop-color="rgba(255, 179, 11, 1)" offset="100%"/></linearGradient></defs><path style="transform:translate(0, 0px); opacity:1" fill="url(#sw-gradient-0)" d="M0,441L120,441C240,441,480,441,720,424.7C960,408,1200,376,1440,359.3C1680,343,1920,343,2160,351.2C2400,359,2640,376,2880,375.7C3120,376,3360,359,3600,367.5C3840,376,4080,408,4320,359.3C4560,310,4800,180,5040,130.7C5280,82,5520,114,5760,106.2C6000,98,6240,49,6480,65.3C6720,82,6960,163,7200,163.3C7440,163,7680,82,7920,57.2C8160,33,8400,65,8640,81.7C8880,98,9120,98,9360,138.8C9600,180,9840,261,10080,294C10320,327,10560,310,10800,261.3C11040,212,11280,131,11520,114.3C11760,98,12000,147,12240,155.2C12480,163,12720,131,12960,171.5C13200,212,13440,327,13680,318.5C13920,310,14160,180,14400,171.5C14640,163,14880,278,15120,277.7C15360,278,15600,163,15840,106.2C16080,49,16320,49,16560,73.5C16800,98,17040,147,17160,171.5L17280,196L17280,490L17160,490C17040,490,16800,490,16560,490C16320,490,16080,490,15840,490C15600,490,15360,490,15120,490C14880,490,14640,490,14400,490C14160,490,13920,490,13680,490C13440,490,13200,490,12960,490C12720,490,12480,490,12240,490C12000,490,11760,490,11520,490C11280,490,11040,490,10800,490C10560,490,10320,490,10080,490C9840,490,9600,490,9360,490C9120,490,8880,490,8640,490C8400,490,8160,490,7920,490C7680,490,7440,490,7200,490C6960,490,6720,490,6480,490C6240,490,6000,490,5760,490C5520,490,5280,490,5040,490C4800,490,4560,490,4320,490C4080,490,3840,490,3600,490C3360,490,3120,490,2880,490C2640,490,2400,490,2160,490C1920,490,1680,490,1440,490C1200,490,960,490,720,490C480,490,240,490,120,490L0,490Z"/><defs><linearGradient id="sw-gradient-1" x1="0" x2="0" y1="1" y2="0"><stop stop-color="rgba(243, 106, 62, 1)" offset="0%"/><stop stop-color="rgba(255, 179, 11, 1)" offset="100%"/></linearGradient></defs><path style="transform:translate(0, 50px); opacity:0.9" fill="url(#sw-gradient-1)" d="M0,343L120,343C240,343,480,343,720,351.2C960,359,1200,376,1440,359.3C1680,343,1920,294,2160,294C2400,294,2640,343,2880,351.2C3120,359,3360,327,3600,302.2C3840,278,4080,261,4320,220.5C4560,180,4800,114,5040,130.7C5280,147,5520,245,5760,277.7C6000,310,6240,278,6480,253.2C6720,229,6960,212,7200,179.7C7440,147,7680,98,7920,106.2C8160,114,8400,180,8640,187.8C8880,196,9120,147,9360,155.2C9600,163,9840,229,10080,277.7C10320,327,10560,359,10800,343C11040,327,11280,261,11520,228.7C11760,196,12000,196,12240,187.8C12480,180,12720,163,12960,138.8C13200,114,13440,82,13680,73.5C13920,65,14160,82,14400,73.5C14640,65,14880,33,15120,24.5C15360,16,15600,33,15840,49C16080,65,16320,82,16560,106.2C16800,131,17040,163,17160,179.7L17280,196L17280,490L17160,490C17040,490,16800,490,16560,490C16320,490,16080,490,15840,490C15600,490,15360,490,15120,490C14880,490,14640,490,14400,490C14160,490,13920,490,13680,490C13440,490,13200,490,12960,490C12720,490,12480,490,12240,490C12000,490,11760,490,11520,490C11280,490,11040,490,10800,490C10560,490,10320,490,10080,490C9840,490,9600,490,9360,490C9120,490,8880,490,8640,490C8400,490,8160,490,7920,490C7680,490,7440,490,7200,490C6960,490,6720,490,6480,490C6240,490,6000,490,5760,490C5520,490,5280,490,5040,490C4800,490,4560,490,4320,490C4080,490,3840,490,3600,490C3360,490,3120,490,2880,490C2640,490,2400,490,2160,490C1920,490,1680,490,1440,490C1200,490,960,490,720,490C480,490,240,490,120,490L0,490Z"/><defs><linearGradient id="sw-gradient-2" x1="0" x2="0" y1="1" y2="0"><stop stop-color="rgba(243, 106, 62, 1)" offset="0%"/><stop stop-color="rgba(255, 179, 11, 1)" offset="100%"/></linearGradient></defs><path style="transform:translate(0, 100px); opacity:0.8" fill="url(#sw-gradient-2)" d="M0,98L120,138.8C240,180,480,261,720,253.2C960,245,1200,147,1440,163.3C1680,180,1920,310,2160,343C2400,376,2640,310,2880,294C3120,278,3360,310,3600,318.5C3840,327,4080,310,4320,285.8C4560,261,4800,229,5040,204.2C5280,180,5520,163,5760,171.5C6000,180,6240,212,6480,245C6720,278,6960,310,7200,310.3C7440,310,7680,278,7920,277.7C8160,278,8400,310,8640,277.7C8880,245,9120,147,9360,155.2C9600,163,9840,278,10080,294C10320,310,10560,229,10800,171.5C11040,114,11280,82,11520,57.2C11760,33,12000,16,12240,40.8C12480,65,12720,131,12960,204.2C13200,278,13440,359,13680,326.7C13920,294,14160,147,14400,89.8C14640,33,14880,65,15120,130.7C15360,196,15600,294,15840,310.3C16080,327,16320,261,16560,204.2C16800,147,17040,98,17160,73.5L17280,49L17280,490L17160,490C17040,490,16800,490,16560,490C16320,490,16080,490,15840,490C15600,490,15360,490,15120,490C14880,490,14640,490,14400,490C14160,490,13920,490,13680,490C13440,490,13200,490,12960,490C12720,490,12480,490,12240,490C12000,490,11760,490,11520,490C11280,490,11040,490,10800,490C10560,490,10320,490,10080,490C9840,490,9600,490,9360,490C9120,490,8880,490,8640,490C8400,490,8160,490,7920,490C7680,490,7440,490,7200,490C6960,490,6720,490,6480,490C6240,490,6000,490,5760,490C5520,490,5280,490,5040,490C4800,490,4560,490,4320,490C4080,490,3840,490,3600,490C3360,490,3120,490,2880,490C2640,490,2400,490,2160,490C1920,490,1680,490,1440,490C1200,490,960,490,720,490C480,490,240,490,120,490L0,490Z"/><defs><linearGradient id="sw-gradient-3" x1="0" x2="0" y1="1" y2="0"><stop stop-color="rgba(243, 106, 62, 1)" offset="0%"/><stop stop-color="rgba(255, 179, 11, 1)" offset="100%"/></linearGradient></defs><path style="transform:translate(0, 150px); opacity:0.7" fill="url(#sw-gradient-3)" d="M0,343L120,310.3C240,278,480,212,720,212.3C960,212,1200,278,1440,318.5C1680,359,1920,376,2160,326.7C2400,278,2640,163,2880,147C3120,131,3360,212,3600,277.7C3840,343,4080,392,4320,408.3C4560,425,4800,408,5040,343C5280,278,5520,163,5760,155.2C6000,147,6240,245,6480,236.8C6720,229,6960,114,7200,81.7C7440,49,7680,98,7920,114.3C8160,131,8400,114,8640,147C8880,180,9120,261,9360,269.5C9600,278,9840,212,10080,171.5C10320,131,10560,114,10800,98C11040,82,11280,65,11520,122.5C11760,180,12000,310,12240,375.7C12480,441,12720,441,12960,408.3C13200,376,13440,310,13680,236.8C13920,163,14160,82,14400,114.3C14640,147,14880,294,15120,351.2C15360,408,15600,376,15840,310.3C16080,245,16320,147,16560,163.3C16800,180,17040,310,17160,375.7L17280,441L17280,490L17160,490C17040,490,16800,490,16560,490C16320,490,16080,490,15840,490C15600,490,15360,490,15120,490C14880,490,14640,490,14400,490C14160,490,13920,490,13680,490C13440,490,13200,490,12960,490C12720,490,12480,490,12240,490C12000,490,11760,490,11520,490C11280,490,11040,490,10800,490C10560,490,10320,490,10080,490C9840,490,9600,490,9360,490C9120,490,8880,490,8640,490C8400,490,8160,490,7920,490C7680,490,7440,490,7200,490C6960,490,6720,490,6480,490C6240,490,6000,490,5760,490C5520,490,5280,490,5040,490C4800,490,4560,490,4320,490C4080,490,3840,490,3600,490C3360,490,3120,490,2880,490C2640,490,2400,490,2160,490C1920,490,1680,490,1440,490C1200,490,960,490,720,490C480,490,240,490,120,490L0,490Z"/></svg>