<svg id="visual" viewBox="0 0 900 600" width="900" height="600" xmlns="http://www.w3.org/2000/svg" xmlns:xlink="http://www.w3.org/1999/xlink" version="1.1"><path d="M0 73L82 73L82 73L164 73L164 73L245 73L245 61L327 61L327 73L409 73L409 61L491 61L491 85L573 85L573 37L655 37L655 55L736 55L736 73L818 73L818 91L900 91L900 67L900 0L900 0L818 0L818 0L736 0L736 0L655 0L655 0L573 0L573 0L491 0L491 0L409 0L409 0L327 0L327 0L245 0L245 0L164 0L164 0L82 0L82 0L0 0Z" fill="#f8e5e3"></path><path d="M0 151L82 151L82 223L164 223L164 151L245 151L245 241L327 241L327 157L409 157L409 223L491 223L491 193L573 193L573 229L655 229L655 217L736 217L736 211L818 211L818 235L900 235L900 331L900 65L900 89L818 89L818 71L736 71L736 53L655 53L655 35L573 35L573 83L491 83L491 59L409 59L409 71L327 71L327 59L245 59L245 71L164 71L164 71L82 71L82 71L0 71Z" fill="#fbd8d9"></path><path d="M0 397L82 397L82 385L164 385L164 385L245 385L245 463L327 463L327 427L409 427L409 427L491 427L491 433L573 433L573 343L655 343L655 367L736 367L736 451L818 451L818 367L900 367L900 433L900 329L900 233L818 233L818 209L736 209L736 215L655 215L655 227L573 227L573 191L491 191L491 221L409 221L409 155L327 155L327 239L245 239L245 149L164 149L164 221L82 221L82 149L0 149Z" fill="#fdcbd2"></path><path d="M0 553L82 553L82 523L164 523L164 559L245 559L245 553L327 553L327 523L409 523L409 505L491 505L491 505L573 505L573 517L655 517L655 511L736 511L736 523L818 523L818 499L900 499L900 481L900 431L900 365L818 365L818 449L736 449L736 365L655 365L655 341L573 341L573 431L491 431L491 425L409 425L409 425L327 425L327 461L245 461L245 383L164 383L164 383L82 383L82 395L0 395Z" fill="#fcbecf"></path><path d="M0 601L82 601L82 601L164 601L164 601L245 601L245 601L327 601L327 601L409 601L409 601L491 601L491 601L573 601L573 601L655 601L655 601L736 601L736 601L818 601L818 601L900 601L900 601L900 479L900 497L818 497L818 521L736 521L736 509L655 509L655 515L573 515L573 503L491 503L491 503L409 503L409 521L327 521L327 551L245 551L245 557L164 557L164 521L82 521L82 551L0 551Z" fill="#f9b1d0"></path></svg>