<svg id="visual" viewBox="0 0 900 600" width="900" height="600" xmlns="http://www.w3.org/2000/svg" xmlns:xlink="http://www.w3.org/1999/xlink" version="1.1"><rect x="0" y="0" width="900" height="600" fill="#001220"></rect><defs><linearGradient id="grad1_0" x1="33.3%" y1="0%" x2="100%" y2="100%"><stop offset="20%" stop-color="#60e92a" stop-opacity="1"></stop><stop offset="80%" stop-color="#60e92a" stop-opacity="1"></stop></linearGradient></defs><defs><linearGradient id="grad1_1" x1="33.3%" y1="0%" x2="100%" y2="100%"><stop offset="20%" stop-color="#60e92a" stop-opacity="1"></stop><stop offset="80%" stop-color="#00b573" stop-opacity="1"></stop></linearGradient></defs><defs><linearGradient id="grad1_2" x1="33.3%" y1="0%" x2="100%" y2="100%"><stop offset="20%" stop-color="#007c82" stop-opacity="1"></stop><stop offset="80%" stop-color="#00b573" stop-opacity="1"></stop></linearGradient></defs><defs><linearGradient id="grad1_3" x1="33.3%" y1="0%" x2="100%" y2="100%"><stop offset="20%" stop-color="#007c82" stop-opacity="1"></stop><stop offset="80%" stop-color="#004460" stop-opacity="1"></stop></linearGradient></defs><defs><linearGradient id="grad1_4" x1="33.3%" y1="0%" x2="100%" y2="100%"><stop offset="20%" stop-color="#001220" stop-opacity="1"></stop><stop offset="80%" stop-color="#004460" stop-opacity="1"></stop></linearGradient></defs><defs><linearGradient id="grad2_0" x1="0%" y1="0%" x2="66.7%" y2="100%"><stop offset="20%" stop-color="#60e92a" stop-opacity="1"></stop><stop offset="80%" stop-color="#60e92a" stop-opacity="1"></stop></linearGradient></defs><defs><linearGradient id="grad2_1" x1="0%" y1="0%" x2="66.7%" y2="100%"><stop offset="20%" stop-color="#00b573" stop-opacity="1"></stop><stop offset="80%" stop-color="#60e92a" stop-opacity="1"></stop></linearGradient></defs><defs><linearGradient id="grad2_2" x1="0%" y1="0%" x2="66.7%" y2="100%"><stop offset="20%" stop-color="#00b573" stop-opacity="1"></stop><stop offset="80%" stop-color="#007c82" stop-opacity="1"></stop></linearGradient></defs><defs><linearGradient id="grad2_3" x1="0%" y1="0%" x2="66.7%" y2="100%"><stop offset="20%" stop-color="#004460" stop-opacity="1"></stop><stop offset="80%" stop-color="#007c82" stop-opacity="1"></stop></linearGradient></defs><defs><linearGradient id="grad2_4" x1="0%" y1="0%" x2="66.7%" y2="100%"><stop offset="20%" stop-color="#004460" stop-opacity="1"></stop><stop offset="80%" stop-color="#001220" stop-opacity="1"></stop></linearGradient></defs><g transform="translate(900, 0)"><path d="M0 405.6C-49.1 393.5 -98.2 381.4 -151.2 364.9C-204.1 348.5 -260.9 327.8 -286.8 286.8C-312.7 245.9 -307.8 184.7 -322.4 133.6C-337.1 82.4 -371.4 41.2 -405.6 0L0 0Z" fill="#002a42"></path><path d="M0 324.5C-39.3 314.8 -78.6 305.1 -120.9 291.9C-163.3 278.8 -208.7 262.2 -229.5 229.5C-250.2 196.7 -246.2 147.8 -257.9 106.8C-269.7 65.9 -297.1 33 -324.5 0L0 0Z" fill="#005f77"></path><path d="M0 243.4C-29.5 236.1 -58.9 228.8 -90.7 219C-122.5 209.1 -156.5 196.7 -172.1 172.1C-187.6 147.5 -184.7 110.8 -193.5 80.1C-202.3 49.4 -222.8 24.7 -243.4 0L0 0Z" fill="#009981"></path><path d="M0 162.2C-19.6 157.4 -39.3 152.5 -60.5 146C-81.6 139.4 -104.4 131.1 -114.7 114.7C-125.1 98.4 -123.1 73.9 -129 53.4C-134.8 33 -148.5 16.5 -162.2 0L0 0Z" fill="#00d058"></path><path d="M0 81.1C-9.8 78.7 -19.6 76.3 -30.2 73C-40.8 69.7 -52.2 65.6 -57.4 57.4C-62.5 49.2 -61.6 36.9 -64.5 26.7C-67.4 16.5 -74.3 8.2 -81.1 0L0 0Z" fill="#60e92a"></path></g><g transform="translate(0, 600)"><path d="M0 -405.6C50.7 -398.7 101.4 -391.7 155.2 -374.7C209 -357.8 265.8 -330.8 285 -285C304.1 -239.2 285.5 -174.6 299.3 -124C313.2 -73.4 359.4 -36.7 405.6 0L0 0Z" fill="#002a42"></path><path d="M0 -324.5C40.6 -318.9 81.2 -313.4 124.2 -299.8C167.2 -286.2 212.7 -264.6 228 -228C243.3 -191.3 228.4 -139.7 239.5 -99.2C250.5 -58.7 287.5 -29.3 324.5 0L0 0Z" fill="#005f77"></path><path d="M0 -243.4C30.4 -239.2 60.9 -235 93.1 -224.8C125.4 -214.7 159.5 -198.5 171 -171C182.5 -143.5 171.3 -104.8 179.6 -74.4C187.9 -44 215.6 -22 243.4 0L0 0Z" fill="#009981"></path><path d="M0 -162.2C20.3 -159.5 40.6 -156.7 62.1 -149.9C83.6 -143.1 106.3 -132.3 114 -114C121.6 -95.7 114.2 -69.8 119.7 -49.6C125.3 -29.3 143.8 -14.7 162.2 0L0 0Z" fill="#00d058"></path><path d="M0 -81.1C10.1 -79.7 20.3 -78.3 31 -74.9C41.8 -71.6 53.2 -66.2 57 -57C60.8 -47.8 57.1 -34.9 59.9 -24.8C62.6 -14.7 71.9 -7.3 81.1 0L0 0Z" fill="#60e92a"></path></g></svg>