<svg id="visual" viewBox="0 0 960 540" width="960" height="540" xmlns="http://www.w3.org/2000/svg" xmlns:xlink="http://www.w3.org/1999/xlink" version="1.1"><rect x="0" y="0" width="960" height="540" fill="#001220"></rect><defs><linearGradient id="grad1_0" x1="43.8%" y1="0%" x2="100%" y2="100%"><stop offset="14.444444444444446%" stop-color="#fbae3c" stop-opacity="1"></stop><stop offset="85.55555555555554%" stop-color="#fbae3c" stop-opacity="1"></stop></linearGradient></defs><defs><linearGradient id="grad1_1" x1="43.8%" y1="0%" x2="100%" y2="100%"><stop offset="14.444444444444446%" stop-color="#fbae3c" stop-opacity="1"></stop><stop offset="85.55555555555554%" stop-color="#f48350" stop-opacity="1"></stop></linearGradient></defs><defs><linearGradient id="grad1_2" x1="43.8%" y1="0%" x2="100%" y2="100%"><stop offset="14.444444444444446%" stop-color="#d96162" stop-opacity="1"></stop><stop offset="85.55555555555554%" stop-color="#f48350" stop-opacity="1"></stop></linearGradient></defs><defs><linearGradient id="grad1_3" x1="43.8%" y1="0%" x2="100%" y2="100%"><stop offset="14.444444444444446%" stop-color="#d96162" stop-opacity="1"></stop><stop offset="85.55555555555554%" stop-color="#af4b6d" stop-opacity="1"></stop></linearGradient></defs><defs><linearGradient id="grad1_4" x1="43.8%" y1="0%" x2="100%" y2="100%"><stop offset="14.444444444444446%" stop-color="#7c3e6b" stop-opacity="1"></stop><stop offset="85.55555555555554%" stop-color="#af4b6d" stop-opacity="1"></stop></linearGradient></defs><defs><linearGradient id="grad1_5" x1="43.8%" y1="0%" x2="100%" y2="100%"><stop offset="14.444444444444446%" stop-color="#7c3e6b" stop-opacity="1"></stop><stop offset="85.55555555555554%" stop-color="#49335c" stop-opacity="1"></stop></linearGradient></defs><defs><linearGradient id="grad1_6" x1="43.8%" y1="0%" x2="100%" y2="100%"><stop offset="14.444444444444446%" stop-color="#1d2540" stop-opacity="1"></stop><stop offset="85.55555555555554%" stop-color="#49335c" stop-opacity="1"></stop></linearGradient></defs><defs><linearGradient id="grad1_7" x1="43.8%" y1="0%" x2="100%" y2="100%"><stop offset="14.444444444444446%" stop-color="#1d2540" stop-opacity="1"></stop><stop offset="85.55555555555554%" stop-color="#001220" stop-opacity="1"></stop></linearGradient></defs><defs><linearGradient id="grad2_0" x1="0%" y1="0%" x2="56.3%" y2="100%"><stop offset="14.444444444444446%" stop-color="#fbae3c" stop-opacity="1"></stop><stop offset="85.55555555555554%" stop-color="#fbae3c" stop-opacity="1"></stop></linearGradient></defs><defs><linearGradient id="grad2_1" x1="0%" y1="0%" x2="56.3%" y2="100%"><stop offset="14.444444444444446%" stop-color="#f48350" stop-opacity="1"></stop><stop offset="85.55555555555554%" stop-color="#fbae3c" stop-opacity="1"></stop></linearGradient></defs><defs><linearGradient id="grad2_2" x1="0%" y1="0%" x2="56.3%" y2="100%"><stop offset="14.444444444444446%" stop-color="#f48350" stop-opacity="1"></stop><stop offset="85.55555555555554%" stop-color="#d96162" stop-opacity="1"></stop></linearGradient></defs><defs><linearGradient id="grad2_3" x1="0%" y1="0%" x2="56.3%" y2="100%"><stop offset="14.444444444444446%" stop-color="#af4b6d" stop-opacity="1"></stop><stop offset="85.55555555555554%" stop-color="#d96162" stop-opacity="1"></stop></linearGradient></defs><defs><linearGradient id="grad2_4" x1="0%" y1="0%" x2="56.3%" y2="100%"><stop offset="14.444444444444446%" stop-color="#af4b6d" stop-opacity="1"></stop><stop offset="85.55555555555554%" stop-color="#7c3e6b" stop-opacity="1"></stop></linearGradient></defs><defs><linearGradient id="grad2_5" x1="0%" y1="0%" x2="56.3%" y2="100%"><stop offset="14.444444444444446%" stop-color="#49335c" stop-opacity="1"></stop><stop offset="85.55555555555554%" stop-color="#7c3e6b" stop-opacity="1"></stop></linearGradient></defs><defs><linearGradient id="grad2_6" x1="0%" y1="0%" x2="56.3%" y2="100%"><stop offset="14.444444444444446%" stop-color="#49335c" stop-opacity="1"></stop><stop offset="85.55555555555554%" stop-color="#1d2540" stop-opacity="1"></stop></linearGradient></defs><defs><linearGradient id="grad2_7" x1="0%" y1="0%" x2="56.3%" y2="100%"><stop offset="14.444444444444446%" stop-color="#001220" stop-opacity="1"></stop><stop offset="85.55555555555554%" stop-color="#1d2540" stop-opacity="1"></stop></linearGradient></defs><g transform="translate(960, 0)"><path d="M0 459C-48.3 455.8 -96.6 452.5 -141.8 436.5C-187.1 420.6 -229.4 391.9 -259.2 356.8C-289 321.7 -306.4 280.2 -337.4 245.1C-368.4 210 -413 181.3 -435.6 141.5C-458.1 101.7 -458.6 50.9 -459 0L0 0Z" fill="#0c1c30"></path><path d="M0 401.6C-42.2 398.8 -84.5 395.9 -124.1 382C-163.7 368 -200.7 342.9 -226.8 312.2C-252.9 281.5 -268.1 245.2 -295.2 214.5C-322.3 183.8 -361.4 158.7 -381.1 123.8C-400.9 89 -401.2 44.5 -401.6 0L0 0Z" fill="#312c4f"></path><path d="M0 344.3C-36.2 341.8 -72.4 339.4 -106.4 327.4C-140.3 315.4 -172.1 293.9 -194.4 267.6C-216.8 241.3 -229.8 210.1 -253 183.8C-276.3 157.5 -309.8 136 -326.7 106.1C-343.6 76.3 -343.9 38.2 -344.2 0L0 0Z" fill="#623965"></path><path d="M0 286.9C-30.2 284.8 -60.3 282.8 -88.6 272.8C-117 262.9 -143.4 244.9 -162 223C-180.6 201.1 -191.5 175.1 -210.9 153.2C-230.2 131.3 -258.1 113.3 -272.2 88.5C-286.3 63.6 -286.6 31.8 -286.9 0L0 0Z" fill="#96446e"></path><path d="M0 229.5C-24.1 227.9 -48.3 226.3 -70.9 218.3C-93.6 210.3 -114.7 195.9 -129.6 178.4C-144.5 160.8 -153.2 140.1 -168.7 122.6C-184.2 105 -206.5 90.7 -217.8 70.8C-229.1 50.9 -229.3 25.4 -229.5 0L0 0Z" fill="#c55469"></path><path d="M0 172.1C-18.1 170.9 -36.2 169.7 -53.2 163.7C-70.2 157.7 -86 147 -97.2 133.8C-108.4 120.6 -114.9 105.1 -126.5 91.9C-138.1 78.8 -154.9 68 -163.3 53.1C-171.8 38.2 -172 19.1 -172.1 0L0 0Z" fill="#e9705a"></path><path d="M0 114.8C-12.1 113.9 -24.1 113.1 -35.5 109.1C-46.8 105.1 -57.4 98 -64.8 89.2C-72.3 80.4 -76.6 70 -84.3 61.3C-92.1 52.5 -103.3 45.3 -108.9 35.4C-114.5 25.4 -114.6 12.7 -114.7 0L0 0Z" fill="#fa9845"></path><path d="M0 57.4C-6 57 -12.1 56.6 -17.7 54.6C-23.4 52.6 -28.7 49 -32.4 44.6C-36.1 40.2 -38.3 35 -42.2 30.6C-46 26.3 -51.6 22.7 -54.4 17.7C-57.3 12.7 -57.3 6.4 -57.4 0L0 0Z" fill="#fbae3c"></path></g><g transform="translate(0, 540)"><path d="M0 -459C47.9 -455.2 95.9 -451.4 141.8 -436.5C187.8 -421.6 231.9 -395.6 262.2 -360.8C292.4 -326 309 -282.5 339 -246.3C369 -210 412.4 -181.1 434.6 -141.2C456.9 -101.4 457.9 -50.7 459 0L0 0Z" fill="#0c1c30"></path><path d="M0 -401.6C41.9 -398.3 83.9 -395 124.1 -382C164.3 -368.9 202.9 -346.1 229.4 -315.7C255.9 -285.3 270.4 -247.2 296.6 -215.5C322.8 -183.8 360.8 -158.4 380.3 -123.6C399.8 -88.7 400.7 -44.4 401.6 0L0 0Z" fill="#312c4f"></path><path d="M0 -344.2C35.9 -341.4 71.9 -338.6 106.4 -327.4C140.9 -316.2 173.9 -296.7 196.6 -270.6C219.3 -244.5 231.7 -211.9 254.2 -184.7C276.7 -157.5 309.3 -135.8 326 -105.9C342.7 -76 343.5 -38 344.3 0L0 0Z" fill="#623965"></path><path d="M0 -286.9C30 -284.5 59.9 -282.2 88.6 -272.8C117.4 -263.5 144.9 -247.2 163.8 -225.5C182.8 -203.8 193.1 -176.6 211.9 -153.9C230.6 -131.3 257.7 -113.2 271.6 -88.3C285.5 -63.4 286.2 -31.7 286.9 0L0 0Z" fill="#96446e"></path><path d="M0 -229.5C24 -227.6 47.9 -225.7 70.9 -218.3C93.9 -210.8 115.9 -197.8 131.1 -180.4C146.2 -163 154.5 -141.3 169.5 -123.1C184.5 -105 206.2 -90.5 217.3 -70.6C228.4 -50.7 229 -25.3 229.5 0L0 0Z" fill="#c55469"></path><path d="M0 -172.1C18 -170.7 35.9 -169.3 53.2 -163.7C70.4 -158.1 86.9 -148.3 98.3 -135.3C109.7 -122.3 115.9 -105.9 127.1 -92.4C138.4 -78.8 154.6 -67.9 163 -53C171.3 -38 171.7 -19 172.1 0L0 0Z" fill="#e9705a"></path><path d="M0 -114.7C12 -113.8 24 -112.9 35.5 -109.1C47 -105.4 58 -98.9 65.5 -90.2C73.1 -81.5 77.2 -70.6 84.7 -61.6C92.2 -52.5 103.1 -45.3 108.7 -35.3C114.2 -25.3 114.5 -12.7 114.8 0L0 0Z" fill="#fa9845"></path><path d="M0 -57.4C6 -56.9 12 -56.4 17.7 -54.6C23.5 -52.7 29 -49.4 32.8 -45.1C36.6 -40.8 38.6 -35.3 42.4 -30.8C46.1 -26.3 51.5 -22.6 54.3 -17.7C57.1 -12.7 57.2 -6.3 57.4 0L0 0Z" fill="#fbae3c"></path></g></svg>