<svg xmlns="http://www.w3.org/2000/svg" version="1.1" xmlns:xlink="http://www.w3.org/1999/xlink" xmlns:svgjs="http://svgjs.com/svgjs" width="1440" height="560" preserveAspectRatio="none" viewBox="0 0 1440 560"><g mask="url(&quot;#SvgjsMask1127&quot;)" fill="none"><rect width="1440" height="560" x="0" y="0" fill="url(#SvgjsLinearGradient1128)"></rect><path d="M560 104.51C542.29 104.51 526.4 119.05 526.4 140C526.4 178.79 541.59 224 560 224C579.05 224 601.31 177.77 601.31 140C601.31 118.03 579.74 104.51 560 104.51" stroke="rgba(227, 228, 235, 1)" stroke-width="2"></path><path d="M840 122.97C825.69 125.29 815.77 131.37 815.77 140C815.77 148.76 829.16 147.39 840 157.75C902.4 217.39 945.81 210.32 962.25 280C976.74 341.45 928.12 348.56 901.86 420C876.65 488.56 886.63 498.16 859.31 560C855.7 568.16 849.65 560 840 560C770 560 770 560 700 560C645 560 598.25 588.89 590 560C578.25 518.89 668.11 481.52 660 420C653.11 367.77 615 336.25 560 332.5C495 328.07 490.54 369.23 420 403.64C400.85 412.98 380.63 411.82 380.63 420C380.63 428.18 404.46 422.24 420 436.36C481.49 492.24 534.7 523.2 534.7 560C534.7 585.02 477.35 560 420 560C350 560 350 560 280 560C210 560 210 560 140 560C70 560 35 595 0 560C-35 525 0 490 0 420C0 350 0 350 0 280C0 210 0 210 0 140C0 70 -35 35 0 0C35 -35 70 0 140 0C210 0 210 0 280 0C350 0 350 0 420 0C490 0 490 0 560 0C630 0 630 0 700 0C770 0 770 0 840 0C910 0 910 0 980 0C1050 0 1050 0 1120 0C1155 0 1190 -3.16 1190 0C1190 3.21 1150.67 -3.83 1120 12.73C1045.67 52.88 1057.19 83.03 980 113.42C917.19 138.15 907.8 112 840 122.97" stroke="rgba(207, 214, 100, 0.58)" stroke-width="2"></path><path d="M1342.56 140C1343.35 76.24 1247.18 37.8 1262.69 0C1275.9 -32.2 1331.35 0 1400 0C1470 0 1505 -35 1540 0C1575 35 1540 70 1540 140C1540 171.95 1553.18 177.02 1540 203.91C1518.87 247.02 1471.37 242.5 1471.37 280C1471.37 316.26 1519.72 310.06 1540 351.43C1554.04 380.06 1540 385.72 1540 420C1540 490 1540 490 1540 560C1540 560 1540 560 1540 560C1470 560 1470 560 1400 560C1330 560 1330 560 1260 560C1190 560 1190 560 1120 560C1108.34 560 1102.59 569.14 1096.67 560C1057.29 499.14 1049.03 493.58 1029.41 420C1011.7 353.58 999.04 339.52 1022 280C1044.33 222.1 1062.01 200.59 1120 185.16C1181.01 168.92 1197.66 229.32 1260 216.67C1308.94 206.74 1342.01 184.57 1342.56 140" stroke="rgba(32, 46, 203, 1)" stroke-width="2"></path><path d="M1260 386.4C1243.53 387.92 1243.2 403.33 1243.2 420C1243.2 435.69 1244.31 449.91 1260 451.11C1322.71 455.91 1331.72 445.66 1400 432C1409.5 430.1 1415.56 426.36 1415.56 420C1415.56 413.12 1410.17 407.72 1400 405.52C1332.39 390.92 1321.93 380.68 1260 386.4" stroke="rgba(207, 214, 100, 0.58)" stroke-width="2"></path><path d="M140 79.13C91.11 52.46 57.27 22.97 57.27 0C57.27 -16.6 98.63 0 140 0C210 0 210 0 280 0C350 0 350 0 420 0C490 0 490 0 560 0C614.44 0 668.89 -13.01 668.89 0C668.89 14.59 608.34 19.43 560 55.21C513.76 89.43 486.9 90.42 479.73 140C470.65 202.81 543.23 222.54 527.5 280C513.37 331.63 479.39 331.3 420 358.18C355.64 387.3 350.98 384.21 280 392C210.98 399.57 201.92 377.63 140 388.89C124.92 391.63 130.53 403.61 126 420C106.87 489.16 131 517.42 92.68 560C68 587.42 18.46 587.88 0 560C-27.88 517.88 0 490 0 420C0 350 0 350 0 280C0 224 -29.9 180.31 0 168C40.1 151.49 67.8 212.72 140 222.35C207.8 231.39 224.82 232.85 280 205.33C307.39 191.67 305.13 168.99 305.13 140C305.13 127.08 294.51 126.86 280 121.51C211.95 96.43 202.47 113.21 140 79.13" stroke="rgba(32, 46, 203, 1)" stroke-width="2"></path><path d="M658.69 140C679.4 91.56 677.94 90.86 700 43.08C710.26 20.86 702.63 6.37 723.33 0C772.63 -15.17 781.66 0 840 0C910 0 910 0 980 0C1023.34 0 1066.67 -15.16 1066.67 0C1066.67 19.39 1030.05 52.4 980 69.11C916.72 90.24 904.38 55.97 840 75.68C788.61 91.41 748.46 107.39 748.46 140C748.46 173.07 796.92 170.38 840 207.04C879.17 240.38 912.96 239.11 912.96 280C912.96 335.82 892.91 377.28 840 400.47C786.43 423.95 761.37 403.97 700 373.33C640.73 343.74 608.53 335.4 598.72 280C587.87 218.74 628.76 210.02 658.69 140" stroke="rgba(32, 46, 203, 1)" stroke-width="2"></path><path d="M1400 104C1360.69 104 1330 33.37 1330 0C1330 -18.63 1365 0 1400 0C1449.19 0 1498.38 -21.18 1498.38 0C1498.38 30.82 1444.88 104 1400 104" stroke="rgba(207, 214, 100, 0.58)" stroke-width="2"></path><path d="M1380 280C1380 274.89 1392.82 266 1400 266C1404.2 266 1402.75 273.22 1402.75 280C1402.75 282.64 1402.42 284.83 1400 284.83C1391.04 284.83 1380 284.31 1380 280" stroke="rgba(227, 228, 235, 1)" stroke-width="2"></path><path d="M1080.88 420C1080.88 364.08 1097.4 304.35 1120 304.35C1143.56 304.35 1173.2 365.26 1173.2 420C1173.2 457.19 1144.18 488.21 1120 488.21C1098.02 488.21 1080.88 456.01 1080.88 420" stroke="rgba(32, 46, 203, 1)" stroke-width="2"></path><path d="M197.93 560C197.93 516.72 223.47 447.68 280 427.78C334.51 408.59 357.88 443.17 420 481.82C464.14 509.28 492.53 536.73 492.53 560C492.53 575.82 456.26 560 420 560C350 560 350 560 280 560C238.97 560 197.93 582.83 197.93 560" stroke="rgba(227, 228, 235, 1)" stroke-width="2"></path><path d="M640 560C640 531.31 666.57 470.64 700 470.64C737.74 470.64 782.35 533.37 782.35 560C782.35 578.05 741.17 560 700 560C670 560 640 575.99 640 560" stroke="rgba(32, 46, 203, 1)" stroke-width="2"></path><path d="M1310.91 560C1310.91 552.84 1358.56 532 1400 532C1418.42 532 1430.63 551.95 1430.63 560C1430.63 565.95 1415.32 560 1400 560C1355.45 560 1310.91 566.84 1310.91 560" stroke="rgba(207, 214, 100, 0.58)" stroke-width="2"></path><path d="M280 55.47C235.26 55.47 190.91 15 190.91 0C190.91 -12.73 235.45 0 280 0C325.94 0 371.88 -12.79 371.88 0C371.88 14.94 325.75 55.47 280 55.47" stroke="rgba(207, 214, 100, 0.58)" stroke-width="2"></path><path d="M394.87 140C405.27 111.92 410.12 85.56 420 85.56C429.22 85.56 426.76 112.73 433.07 140C449.26 209.95 469.71 217.76 465 280C463.17 304.12 444.16 312.73 420 312.73C385.66 312.73 352.38 310.13 348 280C339.82 223.76 369.27 209.14 394.87 140" stroke="rgba(207, 214, 100, 0.58)" stroke-width="2"></path><path d="M560 5.92C545.41 5.92 530 1.49 530 0C530 -1.47 545 0 560 0C565.84 0 571.67 -1.4 571.67 0C571.67 1.56 566.24 5.92 560 5.92" stroke="rgba(207, 214, 100, 0.58)" stroke-width="2"></path><path d="M840 28.38C815.07 25.01 796.25 7.72 796.25 0C796.25 -6.47 818.13 0 840 0C910 0 910 0 980 0C995.56 0 1011.11 -5.44 1011.11 0C1011.11 6.96 998.93 21.67 980 24.81C913.38 35.86 906.95 37.42 840 28.38" stroke="rgba(207, 214, 100, 0.58)" stroke-width="2"></path><path d="M1400 4C1398.49 4 1397.31 1.28 1397.31 0C1397.31 -0.72 1398.65 0 1400 0C1401.89 0 1403.78 -0.81 1403.78 0C1403.78 1.19 1401.72 4 1400 4" stroke="rgba(32, 46, 203, 1)" stroke-width="2"></path><path d="M0 231.64C23.07 231.64 71.89 249.17 71.89 280C71.89 324.5 19.77 382.31 0 382.31C-16.18 382.31 0 331.15 0 280C0 255.82 -12.88 231.64 0 231.64" stroke="rgba(207, 214, 100, 0.58)" stroke-width="2"></path><path d="M673.19 280C673.19 244.03 670.3 205.46 700 201.25C753.71 193.63 773.06 224.13 840 256.34C854.89 263.5 863.66 266.74 863.66 280C863.66 298.1 860.05 316.04 840 319.07C778.22 328.4 766.24 320.23 700 304.71C682.84 300.69 673.19 295.76 673.19 280" stroke="rgba(227, 228, 235, 1)" stroke-width="2"></path><path d="M0 453.79C11.26 453.79 43.38 521.47 43.38 560C43.38 574.57 6.29 575.4 0 560C-15.4 522.3 -10.43 453.79 0 453.79" stroke="rgba(207, 214, 100, 0.58)" stroke-width="2"></path><path d="M258.28 560C258.28 548.54 261.62 528.72 280 525C342.48 512.36 355.41 514 420 527.27C440.59 531.5 450.36 550.26 450.36 560C450.36 566.62 435.18 560 420 560C350 560 350 560 280 560C269.14 560 258.28 566.04 258.28 560" stroke="rgba(32, 46, 203, 1)" stroke-width="2"></path><path d="M690 560C690 555.22 694.43 545.11 700 545.11C706.29 545.11 713.73 555.56 713.73 560C713.73 563.01 706.87 560 700 560C695 560 690 562.66 690 560" stroke="rgba(207, 214, 100, 0.58)" stroke-width="2"></path></g><defs><mask id="SvgjsMask1127"><rect width="1440" height="560" fill="#ffffff"></rect></mask><linearGradient x1="15.28%" y1="-39.29%" x2="84.72%" y2="139.29%" gradientUnits="userSpaceOnUse" id="SvgjsLinearGradient1128"><stop stop-color="#0e2a47" offset="0"></stop><stop stop-color="rgba(40, 41, 42, 1)" offset="1"></stop></linearGradient></defs></svg>