<?xml version="1.0" standalone="no"?>
<svg xmlns:xlink="http://www.w3.org/1999/xlink" id="wave" style="transform:rotate(0deg); transition: 0.3s" viewBox="0 0 1440 290" version="1.1" xmlns="http://www.w3.org/2000/svg"><defs><linearGradient id="sw-gradient-0" x1="0" x2="0" y1="1" y2="0"><stop stop-color="rgba(255, 108.362, 61.266, 1)" offset="0%"/><stop stop-color="rgba(255, 175.574, 0, 1)" offset="100%"/></linearGradient></defs><path style="transform:translate(0, 0px); opacity:1" fill="url(#sw-gradient-0)" d="M0,116L48,140.2C96,164,192,213,288,212.7C384,213,480,164,576,159.5C672,155,768,193,864,193.3C960,193,1056,155,1152,116C1248,77,1344,39,1440,29C1536,19,1632,39,1728,43.5C1824,48,1920,39,2016,29C2112,19,2208,10,2304,4.8C2400,0,2496,0,2592,38.7C2688,77,2784,155,2880,164.3C2976,174,3072,116,3168,120.8C3264,126,3360,193,3456,212.7C3552,232,3648,203,3744,178.8C3840,155,3936,135,4032,140.2C4128,145,4224,174,4320,169.2C4416,164,4512,126,4608,116C4704,106,4800,126,4896,149.8C4992,174,5088,203,5184,183.7C5280,164,5376,97,5472,96.7C5568,97,5664,164,5760,183.7C5856,203,5952,174,6048,149.8C6144,126,6240,106,6336,120.8C6432,135,6528,184,6624,212.7C6720,242,6816,251,6864,256.2L6912,261L6912,290L6864,290C6816,290,6720,290,6624,290C6528,290,6432,290,6336,290C6240,290,6144,290,6048,290C5952,290,5856,290,5760,290C5664,290,5568,290,5472,290C5376,290,5280,290,5184,290C5088,290,4992,290,4896,290C4800,290,4704,290,4608,290C4512,290,4416,290,4320,290C4224,290,4128,290,4032,290C3936,290,3840,290,3744,290C3648,290,3552,290,3456,290C3360,290,3264,290,3168,290C3072,290,2976,290,2880,290C2784,290,2688,290,2592,290C2496,290,2400,290,2304,290C2208,290,2112,290,2016,290C1920,290,1824,290,1728,290C1632,290,1536,290,1440,290C1344,290,1248,290,1152,290C1056,290,960,290,864,290C768,290,672,290,576,290C480,290,384,290,288,290C192,290,96,290,48,290L0,290Z"/><defs><linearGradient id="sw-gradient-1" x1="0" x2="0" y1="1" y2="0"><stop stop-color="rgba(243, 106, 62, 1)" offset="0%"/><stop stop-color="rgba(255, 179, 11, 1)" offset="100%"/></linearGradient></defs><path style="transform:translate(0, 50px); opacity:0.9" fill="url(#sw-gradient-1)" d="M0,0L48,33.8C96,68,192,135,288,174C384,213,480,222,576,188.5C672,155,768,77,864,77.3C960,77,1056,155,1152,183.7C1248,213,1344,193,1440,178.8C1536,164,1632,155,1728,149.8C1824,145,1920,145,2016,125.7C2112,106,2208,68,2304,67.7C2400,68,2496,106,2592,140.2C2688,174,2784,203,2880,203C2976,203,3072,174,3168,174C3264,174,3360,203,3456,207.8C3552,213,3648,193,3744,193.3C3840,193,3936,213,4032,203C4128,193,4224,155,4320,130.5C4416,106,4512,97,4608,120.8C4704,145,4800,203,4896,222.3C4992,242,5088,222,5184,222.3C5280,222,5376,242,5472,207.8C5568,174,5664,87,5760,82.2C5856,77,5952,155,6048,178.8C6144,203,6240,174,6336,149.8C6432,126,6528,106,6624,120.8C6720,135,6816,184,6864,207.8L6912,232L6912,290L6864,290C6816,290,6720,290,6624,290C6528,290,6432,290,6336,290C6240,290,6144,290,6048,290C5952,290,5856,290,5760,290C5664,290,5568,290,5472,290C5376,290,5280,290,5184,290C5088,290,4992,290,4896,290C4800,290,4704,290,4608,290C4512,290,4416,290,4320,290C4224,290,4128,290,4032,290C3936,290,3840,290,3744,290C3648,290,3552,290,3456,290C3360,290,3264,290,3168,290C3072,290,2976,290,2880,290C2784,290,2688,290,2592,290C2496,290,2400,290,2304,290C2208,290,2112,290,2016,290C1920,290,1824,290,1728,290C1632,290,1536,290,1440,290C1344,290,1248,290,1152,290C1056,290,960,290,864,290C768,290,672,290,576,290C480,290,384,290,288,290C192,290,96,290,48,290L0,290Z"/><defs><linearGradient id="sw-gradient-2" x1="0" x2="0" y1="1" y2="0"><stop stop-color="rgba(243, 106, 62, 1)" offset="0%"/><stop stop-color="rgba(255, 179, 11, 1)" offset="100%"/></linearGradient></defs><path style="transform:translate(0, 100px); opacity:0.8" fill="url(#sw-gradient-2)" d="M0,174L48,154.7C96,135,192,97,288,101.5C384,106,480,155,576,164.3C672,174,768,145,864,116C960,87,1056,58,1152,38.7C1248,19,1344,10,1440,24.2C1536,39,1632,77,1728,87C1824,97,1920,77,2016,101.5C2112,126,2208,193,2304,222.3C2400,251,2496,242,2592,236.8C2688,232,2784,232,2880,198.2C2976,164,3072,97,3168,101.5C3264,106,3360,184,3456,178.8C3552,174,3648,87,3744,58C3840,29,3936,58,4032,87C4128,116,4224,145,4320,174C4416,203,4512,232,4608,217.5C4704,203,4800,145,4896,135.3C4992,126,5088,164,5184,188.5C5280,213,5376,222,5472,207.8C5568,193,5664,155,5760,154.7C5856,155,5952,193,6048,188.5C6144,184,6240,135,6336,130.5C6432,126,6528,164,6624,159.5C6720,155,6816,106,6864,82.2L6912,58L6912,290L6864,290C6816,290,6720,290,6624,290C6528,290,6432,290,6336,290C6240,290,6144,290,6048,290C5952,290,5856,290,5760,290C5664,290,5568,290,5472,290C5376,290,5280,290,5184,290C5088,290,4992,290,4896,290C4800,290,4704,290,4608,290C4512,290,4416,290,4320,290C4224,290,4128,290,4032,290C3936,290,3840,290,3744,290C3648,290,3552,290,3456,290C3360,290,3264,290,3168,290C3072,290,2976,290,2880,290C2784,290,2688,290,2592,290C2496,290,2400,290,2304,290C2208,290,2112,290,2016,290C1920,290,1824,290,1728,290C1632,290,1536,290,1440,290C1344,290,1248,290,1152,290C1056,290,960,290,864,290C768,290,672,290,576,290C480,290,384,290,288,290C192,290,96,290,48,290L0,290Z"/><defs><linearGradient id="sw-gradient-3" x1="0" x2="0" y1="1" y2="0"><stop stop-color="rgba(243, 106, 62, 1)" offset="0%"/><stop stop-color="rgba(255, 179, 11, 1)" offset="100%"/></linearGradient></defs><path style="transform:translate(0, 150px); opacity:0.7" fill="url(#sw-gradient-3)" d="M0,174L48,154.7C96,135,192,97,288,101.5C384,106,480,155,576,145C672,135,768,68,864,48.3C960,29,1056,58,1152,91.8C1248,126,1344,164,1440,183.7C1536,203,1632,203,1728,169.2C1824,135,1920,68,2016,53.2C2112,39,2208,77,2304,82.2C2400,87,2496,58,2592,58C2688,58,2784,87,2880,111.2C2976,135,3072,155,3168,154.7C3264,155,3360,135,3456,145C3552,155,3648,193,3744,207.8C3840,222,3936,213,4032,207.8C4128,203,4224,203,4320,188.5C4416,174,4512,145,4608,130.5C4704,116,4800,116,4896,101.5C4992,87,5088,58,5184,58C5280,58,5376,87,5472,111.2C5568,135,5664,155,5760,135.3C5856,116,5952,58,6048,48.3C6144,39,6240,77,6336,82.2C6432,87,6528,58,6624,72.5C6720,87,6816,145,6864,174L6912,203L6912,290L6864,290C6816,290,6720,290,6624,290C6528,290,6432,290,6336,290C6240,290,6144,290,6048,290C5952,290,5856,290,5760,290C5664,290,5568,290,5472,290C5376,290,5280,290,5184,290C5088,290,4992,290,4896,290C4800,290,4704,290,4608,290C4512,290,4416,290,4320,290C4224,290,4128,290,4032,290C3936,290,3840,290,3744,290C3648,290,3552,290,3456,290C3360,290,3264,290,3168,290C3072,290,2976,290,2880,290C2784,290,2688,290,2592,290C2496,290,2400,290,2304,290C2208,290,2112,290,2016,290C1920,290,1824,290,1728,290C1632,290,1536,290,1440,290C1344,290,1248,290,1152,290C1056,290,960,290,864,290C768,290,672,290,576,290C480,290,384,290,288,290C192,290,96,290,48,290L0,290Z"/></svg>